<svg xmlns="http://www.w3.org/2000/svg" viewBox="0 0 1508 1219.39"><defs><style>.e66f0a3d-a49c-4a29-9ef4-9858cf64d52c{fill:#fff;}.f38084b6-2c64-4abc-b5be-5ffed2ed4419{fill:#cfd5d9;}.aeec2f30-e6ef-4f4a-add5-da3fb549fd5a{fill:#f7c463;}.f7027cf2-d910-4f46-88e2-206ffa9f4bba{fill:#f25f54;}.ba792494-ef27-463e-bd83-67e01011ebae{fill:#ed9e4e;}.b3c393d2-d586-44ad-a4ac-e941094c5adb{fill:#efc267;}.b917872a-ab48-4906-9bb3-b73dced136fc{fill:#f2f5f7;}.acd2a8fc-1436-48bc-83bb-cbd964846465{fill:#c16161;}.ff4de1e8-63fb-4d16-8dbf-6fd3a5eafc4b{fill:#c3c7c9;}.abb331a7-e14d-44a6-ba4b-8a43a11e8e00{fill:#4f668c;}.a2fb86cb-8c1a-497c-9e62-d02b2d3146c7{fill:#364249;}.a3ccd70f-5c0a-41fe-8e17-5f66579a585a{fill:#554d59;}.e56185ce-28a7-4437-b14d-38c5b679fad9{fill:#e6beb5;}.b2cb1319-6ccc-4ffc-8554-c4d9e293a733{fill:#f9dbd4;}.ad91631f-21c3-43eb-bf48-bed46761b809{fill:#555;}.a101974d-0955-45f6-86c4-5f0915b7ce78{fill:#edc4bb;}.f188c732-138d-434b-af79-b61841fa531a{fill:#ce9b97;}.b3b82bef-09ad-4fad-8799-4a56a561fabb{fill:#c6cbcf;}</style></defs><g id="f4e28f4f-93ce-423c-9340-27e2e80c9472" data-name="Layer 2"><g id="bce998b9-5682-4080-8bd2-baa6d93431d2" data-name="Layer 4"><path class="e66f0a3d-a49c-4a29-9ef4-9858cf64d52c" d="M327.42,8H1480a20,20,0,0,1,20,20V819.18a30,30,0,0,1-30,30H337.42a30,30,0,0,1-30-30V28a20,20,0,0,1,20-20Z"/><path class="f38084b6-2c64-4abc-b5be-5ffed2ed4419" d="M1470,8a30,30,0,0,1,30,30V819.18a30,30,0,0,1-30,30H327.42a20,20,0,0,1-20-20V28a20,20,0,0,1,20-20H1470m0-8H327.42a28,28,0,0,0-28,28V829.18a28,28,0,0,0,28,28H1470a38,38,0,0,0,38-38V38a38,38,0,0,0-38-38Z"/><rect class="aeec2f30-e6ef-4f4a-add5-da3fb549fd5a" x="597.6" y="765.99" width="44.71" height="31.3"/><rect class="aeec2f30-e6ef-4f4a-add5-da3fb549fd5a" x="671.12" y="751.48" width="44.71" height="45.8"/><rect class="aeec2f30-e6ef-4f4a-add5-da3fb549fd5a" x="744.64" y="734.69" width="44.71" height="62.6"/><rect class="aeec2f30-e6ef-4f4a-add5-da3fb549fd5a" x="818.16" y="705.68" width="44.71" height="91.61"/><rect class="aeec2f30-e6ef-4f4a-add5-da3fb549fd5a" x="891.68" y="672.09" width="44.71" height="125.19"/><rect class="aeec2f30-e6ef-4f4a-add5-da3fb549fd5a" x="965.2" y="627.21" width="44.71" height="170.08"/><rect class="aeec2f30-e6ef-4f4a-add5-da3fb549fd5a" x="1038.73" y="561.13" width="44.71" height="236.16"/><rect class="aeec2f30-e6ef-4f4a-add5-da3fb549fd5a" x="1112.25" y="499.65" width="44.71" height="297.63"/><rect class="aeec2f30-e6ef-4f4a-add5-da3fb549fd5a" x="1185.77" y="424.07" width="44.71" height="373.22"/><rect class="aeec2f30-e6ef-4f4a-add5-da3fb549fd5a" x="1259.29" y="327.33" width="44.71" height="467.6"/><rect class="aeec2f30-e6ef-4f4a-add5-da3fb549fd5a" x="1332.81" y="218.56" width="42.72" height="576.37"/><rect class="aeec2f30-e6ef-4f4a-add5-da3fb549fd5a" x="1404.34" y="105.17" width="42.72" height="689.75"/><path class="f7027cf2-d910-4f46-88e2-206ffa9f4bba" d="M1049.67,336.48c57.67-38.59,114.76-122.09,114.76-122.09l-37.86-20.19,89.68-37.41,17.17,93.76-36.73-18.46s-68.8,91-136.18,120.3c-43.28,18.78-91.11,18.29-91.11,18.29S1000,369.73,1049.67,336.48Z"/><rect class="ba792494-ef27-463e-bd83-67e01011ebae" x="381.42" y="114.12" width="290.54" height="21.68" rx="7"/><path class="b3c393d2-d586-44ad-a4ac-e941094c5adb" d="M806.91,222.57h0l-431.47,0a6,6,0,0,1,0-12h0l431.47,0a6,6,0,0,1,0,12Z"/><path class="b3c393d2-d586-44ad-a4ac-e941094c5adb" d="M804.45,269.67h0l-431.47,0a6,6,0,0,1,0-12h0l431.47,0a6,6,0,0,1,0,12Z"/><path class="b3c393d2-d586-44ad-a4ac-e941094c5adb" d="M806.91,320.69h0l-431.47,0a6,6,0,0,1,0-12h0l431.47,0a6,6,0,0,1,0,12Z"/><path class="b3c393d2-d586-44ad-a4ac-e941094c5adb" d="M806.91,371.71h0l-431.47,0a6,6,0,0,1,0-12h0l431.47,0a6,6,0,0,1,0,12Z"/><path class="b3c393d2-d586-44ad-a4ac-e941094c5adb" d="M806.91,422.73h0l-431.47,0a6,6,0,0,1,0-12h0l431.47,0a6,6,0,0,1,0,12Z"/><path class="b3c393d2-d586-44ad-a4ac-e941094c5adb" d="M806.91,472.74h0l-431.47,0a6,6,0,0,1,0-12h0l431.47,0a6,6,0,1,1,0,12Z"/><path class="b3c393d2-d586-44ad-a4ac-e941094c5adb" d="M804.45,524.55h0l-431.47,0a6,6,0,0,1,0-12h0l431.47,0a6,6,0,0,1,0,12Z"/><polygon class="b917872a-ab48-4906-9bb3-b73dced136fc" points="341.98 1111.61 368.81 928.87 339.01 771.43 319.24 734.71 303.21 724.3 254.7 711.8 218.52 710.67 209.58 714.49 201.29 727.66 197.37 770.55 341.98 1111.61"/><path class="acd2a8fc-1436-48bc-83bb-cbd964846465" d="M351.4,1047.47c1.43-11.27,3.17-22.69,3.66-34l.52-49.85L319.38,851a17.33,17.33,0,0,1-.7-7.19l3.69-32.79-19.16-16.19L290,797.64l-17.09,18.78,23.5,29.74a17.41,17.41,0,0,1,3.74,10.52l1.06,81.93A283,283,0,0,1,310.1,967l15.31,61c3.14,11.34,5.95,21.89,7.78,33.5l9,49Z"/><path class="ff4de1e8-63fb-4d16-8dbf-6fd3a5eafc4b" d="M339.78,827.58a1.5,1.5,0,0,1-1-.36L302.24,796a1.5,1.5,0,1,1,1.95-2.28l36.57,31.22a1.5,1.5,0,0,1-1,2.64Z"/><path class="ff4de1e8-63fb-4d16-8dbf-6fd3a5eafc4b" d="M255.1,835.71a1.48,1.48,0,0,1-1-.42,1.5,1.5,0,0,1-.05-2.12l34.86-36.57a1.5,1.5,0,1,1,2.17,2.07l-34.86,36.57A1.49,1.49,0,0,1,255.1,835.71Z"/><path class="abb331a7-e14d-44a6-ba4b-8a43a11e8e00" d="M793.9,930.06,791,919.93a122.53,122.53,0,0,0-18.2-37.66l-5.71-8a72,72,0,0,0-30.59-24.43h0a6.38,6.38,0,0,0-7.34,1.76l-103,110.14a7.71,7.71,0,0,1-3.06,2.19l-11.66,4.53a7.6,7.6,0,0,0-3.05,2.17l-6.11,7.17a7.67,7.67,0,0,1-6.07,2.69l-6.53-.21a5.49,5.49,0,0,0-4.64,2.29,6,6,0,0,0-.69,1.24l-3.12,7.4-38.57-65.3L486.39,822.25a37,37,0,0,0-14.16-12.54L441.9,794.43A338.24,338.24,0,0,0,394.68,775L347,759.43l-16-22.31a6.35,6.35,0,0,0-2.43-2l-62.5-29.85-44.27,3.63a7.79,7.79,0,0,0-1.79.36l-7.8,2.6a7.64,7.64,0,0,0-3.91,3l-30.09,44.28-38.38,14.36C96.65,789.3,50,816,50,816a10.28,10.28,0,0,0-4.49,3.76,2.55,2.55,0,0,1-3.27.86,4.77,4.77,0,0,0-4.67.23l-.86.54a12.76,12.76,0,0,0-4.88,5.65L30,831.18a89.44,89.44,0,0,0-7.35,29.34l-22,284.11a235.09,235.09,0,0,0-.1,34.09l2.86,40.67h454l-2.91-23.84-5.73-66.8a114.59,114.59,0,0,1,0-19.34l7.93-95.2,71.59,94.16a201.86,201.86,0,0,0,20.23,22.81l18.86,18.3a23.54,23.54,0,0,0,16.76,6.66h0a42.54,42.54,0,0,0,23.48-7.44l29.9-20.44A119.66,119.66,0,0,0,665.88,1101l24-32.09,103.1-133.35A6.4,6.4,0,0,0,793.9,930.06Zm-439.51,29L352,1013.43q-.74,17-2.88,34L342,1103.44l-6.62-42A311.82,311.82,0,0,0,328,1027l-16.59-60a337,337,0,0,0-20.76-55.51l-21.7-45.4a177.32,177.32,0,0,0-25.44-39l-.62-.72a206.58,206.58,0,0,1-23.48-33.58L205,767.22a17.35,17.35,0,0,1-2.2-7.59L202,744.4a41.05,41.05,0,0,1,2.42-16.21l4-11a2.57,2.57,0,0,1,1.5-1.51l8.39-3.16L260,718.07l44.19,7.72,13.2,13.12,18.23,37.52a33.7,33.7,0,0,1,3.11,10.28l12.64,93.36A487.44,487.44,0,0,1,354.39,959.09Z"/><path class="a2fb86cb-8c1a-497c-9e62-d02b2d3146c7" d="M338.15,1128.5a1.49,1.49,0,0,1-1.3-.75c-11.63-20.15-26.44-40.59-40.78-60.36-7.22-10-14.69-20.27-21.45-30.15-34.93-51-62.82-107.31-89.78-161.72-.94-.94-.74-1.29,5.33-12.11,3-5.41,7.31-12.9,12.71-22.28,9.19-16,18.58-32,18.67-32.2a1.5,1.5,0,1,1,2.59,1.52C210.41,834,190,869.37,187.62,874.39c26.89,54.26,54.7,110.34,89.47,161.16,6.74,9.84,13.87,19.67,21.41,30.08,14.38,19.83,29.25,40.33,40.94,60.62a1.49,1.49,0,0,1-.55,2A1.42,1.42,0,0,1,338.15,1128.5Z"/><path class="a2fb86cb-8c1a-497c-9e62-d02b2d3146c7" d="M345.38,1135.72a1.41,1.41,0,0,1-.45-.07,1.48,1.48,0,0,1-1-1.87c6.7-21.49,25.23-97.11,27.7-114.68,2.44-17.32,11.94-130.54,12.59-138.3-2.22-4.57-24.49-50.08-39.57-72.61a1.49,1.49,0,0,1,.41-2.08,1.51,1.51,0,0,1,2.08.41c15.93,23.79,39.72,72.84,40,73.34a1.4,1.4,0,0,1,.14.78c-.1,1.2-10.12,121-12.64,138.88-2.65,18.86-21.68,95.52-27.81,115.15A1.5,1.5,0,0,1,345.38,1135.72Z"/><path class="a2fb86cb-8c1a-497c-9e62-d02b2d3146c7" d="M454.55,1004.26a1.51,1.51,0,0,1-1.5-1.41c0-.38-2.33-38.21-2.33-63.32,0-24.75,5.52-63.72,5.76-65.39.1-1.24,1.57-16.35,17.78-47.09a1.5,1.5,0,1,1,2.65,1.4c-16.28,30.87-17.43,45.8-17.44,45.95a.41.41,0,0,1,0,.11c-.06.4-5.74,40.07-5.74,65s2.31,62.76,2.33,63.13a1.5,1.5,0,0,1-1.41,1.59Z"/><path class="a2fb86cb-8c1a-497c-9e62-d02b2d3146c7" d="M333.85,1214.22a1.5,1.5,0,0,1-1.5-1.4c-.65-10.57-1.84-29.31-2.46-36.14-.93-10.13-1.58-19.94.55-28.43.56-2.21,1.33-4.69,2.22-7.56A197.84,197.84,0,0,0,340.5,1107a1.5,1.5,0,1,1,3,.41,199.8,199.8,0,0,1-8,34.14c-.87,2.83-1.63,5.27-2.17,7.4-2,8-1.38,17.56-.48,27.43.6,6.52,1.68,23.3,2.48,36.22a1.5,1.5,0,0,1-1.41,1.59Z"/><path class="a2fb86cb-8c1a-497c-9e62-d02b2d3146c7" d="M199.79,848.53a1.55,1.55,0,0,1-.56-.11l-27.91-11.24a1.5,1.5,0,0,1-.92-1.17c-2.64-17.46-4.2-31.79-4.89-45.09-.35-6.73-.29-13.94,2.51-21a1.5,1.5,0,0,1,2.79,1.1c-2.59,6.58-2.64,13.4-2.31,19.79.68,13,2.19,27,4.74,44l27.11,10.92a1.5,1.5,0,0,1-.56,2.89Z"/><path class="a2fb86cb-8c1a-497c-9e62-d02b2d3146c7" d="M365.47,839.26a1.49,1.49,0,0,1-1-2.61l10.7-9.59c-2-4.49-10.89-24.13-27.18-55.31a1.5,1.5,0,0,1,2.65-1.39c18.64,35.66,27.63,56.29,27.72,56.5a1.48,1.48,0,0,1-.38,1.71l-11.51,10.31A1.46,1.46,0,0,1,365.47,839.26Z"/><path class="a2fb86cb-8c1a-497c-9e62-d02b2d3146c7" d="M111.39,948.89a1.5,1.5,0,0,1-1.48-1.26c-.64-4.12-1.23-8.13-1.81-12.06-3.38-23-6.3-42.78-17.45-62.46-9.29-16.41-23.41-23.49-38.36-31-1.94-1-3.89-2-5.84-3a1.5,1.5,0,1,1,1.37-2.67q2.93,1.5,5.82,3c15.36,7.71,29.88,15,39.62,32.19,11.42,20.17,14.38,40.25,17.81,63.51.57,3.91,1.16,7.92,1.81,12a1.5,1.5,0,0,1-1.25,1.72Z"/><path class="a2fb86cb-8c1a-497c-9e62-d02b2d3146c7" d="M115.46,1215.21h-.06a1.51,1.51,0,0,1-1.44-1.57c2.42-54.25,4.91-110.35,2.4-173.54a1.5,1.5,0,1,1,3-.12c2.51,63.32,0,119.48-2.4,173.79A1.5,1.5,0,0,1,115.46,1215.21Z"/><ellipse class="a2fb86cb-8c1a-497c-9e62-d02b2d3146c7" cx="348.52" cy="1155.42" rx="6.54" ry="14.67"/><path class="a3ccd70f-5c0a-41fe-8e17-5f66579a585a" d="M216.42,694.11c-9.34-17.23-31.7-34.5-44.7-46.5-13.32-12.31-19.53-13.91-36-44.63-4.24-8.16-7.13-14.14-10-24-13.21-45.46-7.8-48.38,2-74.84,19.88-53.95,81.54-85.54,107.3-88.82,17.1-2.18,40.71-.49,74.18,6.23,31.85,6.39,44.3,20.23,60.11,15.61-.6,7.55-5.18,14.6-12.11,15.94,11,4.12,12.83,3,27.79,12.29-7.62,1.48-13.46,6.65-15.68,11,4.62,3.49,9,7.36,17,7.36-1.36,5.17-5.77,14.11-10.72,18.63a55.83,55.83,0,0,1,12.77,13s-20.74-.44-26.68,6.2Z"/><path class="e56185ce-28a7-4437-b14d-38c5b679fad9" d="M208.94,649.41c7.5,8.48,7.59,25,7.59,40s-3.85,36-3.85,36l31.24,45.31A23.43,23.43,0,0,0,254.36,779l32.9,13.34a14,14,0,0,0,7.69.82h0a10.17,10.17,0,0,0,7.14-5.14l10.05-18.51a10.56,10.56,0,0,0,1.09-7.12c-2.85-14.57-4.88-29.3-4-32.35,1.27-4.44,5.82-7.23,9.52-10,6.14-4.63,14.39-5.78,21-8.07.63-1-2.82-8.53-3.85-9.13Z"/><path class="b2cb1319-6ccc-4ffc-8554-c4d9e293a733" d="M167.54,622.39c-14.16-3.73-27.83-43.82-26.78-69.73A111.31,111.31,0,0,1,143,535.52c4.57-23.06,13.85-45.16,26.94-66.29,29.93-19.9,62.55-27.66,98.43-25.47,22.87,1.41,25.42,24,44.72,31.8,56.34,22.83,60.58,61.12,66.45,93.84,4.48,25,18.7,75.24-28.63,135.06A22.86,22.86,0,0,1,332.79,713c-21.68,0-74.61-10.05-100-28.33-10.82-7.8-15.05-15.86-22.84-29.34C209.94,655.31,196.76,630.1,167.54,622.39Z"/><path class="a3ccd70f-5c0a-41fe-8e17-5f66579a585a" d="M161.51,622.1l13.54,15.77s15.36-42.85,15.44-42.43l8.9,5a48.77,48.77,0,0,1,5.94,3.76c3.66,2.84,6.42,6.66,10,9.77a91.66,91.66,0,0,0-1.19-40.59s12.8-10.32,12.15-10.78l-6.28-15.1a26.79,26.79,0,0,1-2.27-7.51c-.59-6.14,3.08-11.79,6.75-16.75a115.46,115.46,0,0,1,24.85-1.14c-4.71-6.8-7.51-9.25-12.91-12.05,15.5-6,21.82-5.05,34.83-7.52s29.24-4.39,41.55-1a28.68,28.68,0,0,0-5.56-12c11.54,0,29.52,6.6,37.11,14.59a19.3,19.3,0,0,0-.94-10.19c14.55,11.16,26.83,11.55,34.24,20.66l-20.8-40.34L338.67,458.5,266.9,430.72l-66.28,9.47L162.9,463l-24.19,30.86-8.07,46.29,4.56,40.33Z"/><path class="a3ccd70f-5c0a-41fe-8e17-5f66579a585a" d="M259.84,545.36c2.19-5.17,19.63-8.29,25.24-8.26s10.94,2.82,15.08,6.55c-6.83.61-16.91,1.22-23.74,1.84C273.79,545.72,262.54,545.92,259.84,545.36Z"/><path class="a3ccd70f-5c0a-41fe-8e17-5f66579a585a" d="M369.28,534.85c-2.4-4.06-7.74-5.49-11.09-4.17s-6,5-7.64,9.25l12.66-3.09C364.83,536.44,367.78,536,369.28,534.85Z"/><path class="b2cb1319-6ccc-4ffc-8554-c4d9e293a733" d="M200.76,602.58a23.84,23.84,0,0,0-17.17-13.66,14.46,14.46,0,0,0-7.27,1.11c-1.88,1.07-2.78,3.27-3.45,5.34a70.19,70.19,0,0,0-3.38,22.1,19.93,19.93,0,0,0,1.3,7.9,23.28,23.28,0,0,0,3.42,5.07A107,107,0,0,0,189.43,646c7.83,6.51,16.18,7.47,23.68,6.39"/><path class="ad91631f-21c3-43eb-bf48-bed46761b809" d="M289.65,561.69c-3-3.88-6.31-3.65-8.11-1.85s-2.3,4.52-2.48,7.07c-.65,9.23.42,15.8,5.56,23.49,1.56,2.33,3.86,4.73,6.64,4.4a5.61,5.61,0,0,0,4.22-3.5,14.63,14.63,0,0,0,.93-5.62C296.51,581.33,295.9,569.89,289.65,561.69Z"/><path class="ad91631f-21c3-43eb-bf48-bed46761b809" d="M364,555.11c-2.55-3.59-5.27-3.27-6.68-1.51s-1.72,4.35-1.78,6.77c-.22,8.76.88,14.94,5.34,22.08,1.35,2.16,3.31,4.36,5.56,4a4.84,4.84,0,0,0,3.33-3.44,16.18,16.18,0,0,0,.56-5.35C370.25,573.51,369.36,562.69,364,555.11Z"/><path class="a101974d-0955-45f6-86c4-5f0915b7ce78" d="M364.9,604.31c-12.93-7.85-21-17.37-24.15-27.77a82.4,82.4,0,0,1,2.34-19C348.09,573.85,353.94,590.51,364.9,604.31Z"/><path class="f188c732-138d-434b-af79-b61841fa531a" d="M200.43,640.28a1.5,1.5,0,0,1-1.25-.67c-3.3-5-6.66-10.74-4.85-16.67.12-.38.26-.75.4-1.13a8.33,8.33,0,0,0,.52-1.75c.16-1.27-.38-2.6-1.1-4.22a50.79,50.79,0,0,0-5.67-10.43,16,16,0,0,0-9-6.21,1.5,1.5,0,0,1,.61-2.93,18.85,18.85,0,0,1,10.79,7.31,53,53,0,0,1,6,11,10.89,10.89,0,0,1,1.33,5.83,10.55,10.55,0,0,1-.68,2.42c-.12.32-.24.64-.34,1-1.43,4.67,1.56,9.74,4.48,14.13a1.5,1.5,0,0,1-.42,2.08A1.52,1.52,0,0,1,200.43,640.28Z"/><path class="f188c732-138d-434b-af79-b61841fa531a" d="M330.6,659.35a55.4,55.4,0,0,1-18.06-2.78,1.5,1.5,0,1,1,1-2.82c13,4.6,30.3,2.75,37.76-1.8,1.55-1,3.46-2.5,3.73-4.5a1.5,1.5,0,0,1,3,.41c-.35,2.54-2.08,4.78-5.15,6.65C347.66,657.69,339.21,659.35,330.6,659.35Z"/><path class="b2cb1319-6ccc-4ffc-8554-c4d9e293a733" d="M755,839.41l1.37-7.41A33.09,33.09,0,0,1,760,822l20.11-36.11a16.87,16.87,0,0,1,4.84-5.45l22.26-16.09a84.62,84.62,0,0,0,14.25-13L834.69,736a4.16,4.16,0,0,1,5.22-.87l.56.32a4.18,4.18,0,0,1,2.08,3.38l1.05,19.29,13.34-4.84a11.08,11.08,0,0,1,6.62-.29h0a11.08,11.08,0,0,1,7.65,7.17l.92,2.73c1.18,3.47.87,5.28-3.25,10.22-3.25,3.89-10.61,9.77-10.61,9.77a54.84,54.84,0,0,0,12.88,5.87c1.44.44,3.81,2,4.49,4l.5,1.5c.37,1.12,4.41,28.6,4.41,28.6a8.36,8.36,0,0,1-1.72,7.15l-4.63,5.59.78,7.41a10.85,10.85,0,0,1-4.32,9.86l-9,6.65c-2.41,1.79-4.62,2.28-8,3.27l-24.92,3.84c-8,.65-9-1.74-9-1.74l-11.31,12.7A19.54,19.54,0,0,1,797,882.2l-10.37.64-17.13,24.8s-8.56-8.52-20.42-23.15c-12.45-15.36-13.76-20.67-13.76-20.67Z"/><path class="f188c732-138d-434b-af79-b61841fa531a" d="M793.36,859.23a1.5,1.5,0,0,1-1-2.65c3.05-2.57,5.12-6.13,7.15-9.86,4.25-7.82,8.15-16,11.61-24.16a1.5,1.5,0,1,1,2.77,1.17c-3.5,8.29-7.45,16.51-11.75,24.42-2.08,3.84-4.4,7.82-7.84,10.73A1.54,1.54,0,0,1,793.36,859.23Z"/><path class="f188c732-138d-434b-af79-b61841fa531a" d="M817.22,863.76a1.52,1.52,0,0,1-1.34-.83,14.75,14.75,0,0,1,1.92-15.65,27.28,27.28,0,0,1-3.41-4,8,8,0,0,1-1.47-3.67,9.21,9.21,0,0,1,.49-3.56,43.48,43.48,0,0,1,2.88-7.37c-.46-.41-.92-.79-1.37-1.16a12.41,12.41,0,0,1-3.47-3.75,9.4,9.4,0,0,1-.61-6.22,17.43,17.43,0,0,1,2.78-6.58,14.66,14.66,0,0,1-7.78-5.08,9.91,9.91,0,0,1-2.08-6.9c.12-5.62,6.85-12.21,25.72-25.19a1.5,1.5,0,1,1,1.7,2.48c-17.25,11.86-24.32,18.46-24.42,22.78a6.86,6.86,0,0,0,1.47,5c1.46,1.94,5,4.5,8.23,4.15a1.5,1.5,0,0,1,1.51.85,1.48,1.48,0,0,1-.29,1.7,14.48,14.48,0,0,0-3.9,7.35,6.67,6.67,0,0,0,.33,4.27,10.16,10.16,0,0,0,2.71,2.81,28.26,28.26,0,0,1,2.38,2.1,1.5,1.5,0,0,1,.26,1.77,40.55,40.55,0,0,0-3.17,7.82,6.48,6.48,0,0,0-.38,2.42,5.22,5.22,0,0,0,1,2.31,31.84,31.84,0,0,0,3.8,4.3l.26.25a1.51,1.51,0,0,1,0,2.15,11.58,11.58,0,0,0-2.35,13.23,1.49,1.49,0,0,1-.66,2A1.52,1.52,0,0,1,817.22,863.76Z"/><path class="b3b82bef-09ad-4fad-8799-4a56a561fabb" d="M849.21,760.56,1092.35,405.5l-2.46-1.67L843,754.21c-.21,1.31-2.36,5.84-4.14,9.17-2,3.73-5.48,9.2-5.6,9.31C833.48,772.55,841.64,766.16,849.21,760.56Z"/></g></g></svg>