<svg xmlns="http://www.w3.org/2000/svg" viewBox="0 0 1500 1024.09"><defs><style>.af302056-3501-413f-827d-a0f56d33d241{fill:#ffabb2;}.ac28f8ed-abee-4c94-8b18-a7c4be674ea1{fill:#cff7c8;}.bae8801a-185b-4879-aeb2-82cdad8a893d{fill:#c2e4f9;}.bcec7ef7-23c1-497f-b90e-a3a322d9370a{fill:#fff2b3;}.ae0f5189-a2a0-4863-8d69-e71debaaa20f{fill:#9edbf7;}.f55ddc67-277c-4ef2-b239-96e9315ff4b5{fill:#d6f1ff;}.b1206244-8002-49e3-96e7-02f05525ee4c{fill:#6599c2;}.bee9b339-a57f-4596-a59a-916b7706a201{fill:#5e463c;}.a0fc1ea7-eb00-4279-a57b-c96bb9a32f27{fill:#7f5e54;}.ee361fea-a0ea-4215-bff5-25e37249ce7e{fill:#a37b6a;}.a92c42b6-07f9-4567-9370-2dc1e57f196e{fill:#684a47;}.f1041a98-5886-437e-9ae4-03b53177f65f{fill:#494949;}.b2da9e43-dd8a-4fec-b5fd-1d78a7a4be87{fill:#674a47;}.a112f603-05dc-4b1a-a716-4cd3d6ab1ca3{fill:#d95b5b;}.b48d6297-d160-43ac-9b54-1151141e53c6{fill:#a64646;}.b58595c1-0a69-476d-a343-7990c99ca41c{fill:#d8b2a4;}.b25672e5-f5fc-4f83-b86b-19a6793772ba{fill:#45413e;}.bd5d0e22-9c57-4fcd-8968-f6a72b03d673{fill:#f0d3c2;}.b43e1b81-4be6-4177-a799-dc869303a08e{fill:#555;}.f9984349-6387-41fc-b654-16e61e4df6c9{fill:#ce9b97;}.a34297a1-fa26-487e-9224-e4b414941c93{fill:#cc8591;}.a52c2592-4b33-484b-8973-1c67d1cf7911{fill:#4b5a5e;}.acb87607-a532-4534-ab10-cee995699aaf{fill:#f0ea7d;}.b7ef5e91-6e95-4be0-ba0c-f4a3fd119c2b{fill:#787d39;}.b4a27288-841b-45a0-b3e5-450773badee9{fill:#a3a83d;}.fc5cb312-bed5-49e9-b7c2-f5912b6a841f{fill:#9e7a6a;}.bb6a4b03-4b7b-4bfa-b2f4-f4009c6f9131{fill:#f5f4e9;}.f1a8373d-d85b-48e8-8489-d3479457ab51{fill:#c79c83;}.a182464a-52a0-47d5-acda-f7b87c7f885d{fill:#8e6d62;}.a6584816-5686-4f04-a6c1-e28a14b9bdac{fill:#ad6a75;}.f929bc99-9c79-45b3-9cf2-299e86cbe9b4{fill:#a0704d;}.bb324214-ce1d-4de8-8cc0-6e65ca2ecd02{fill:#7a523c;}.b4459c37-c376-4a27-a44a-84b2d748503f{fill:#f9dbd4;}.f6a8d4a7-5a15-4ce8-a9c3-c84cf19f97c2{fill:#f7bf66;}.f0ec9fc8-e927-4ec1-9838-40f7c938f4bf{fill:#e6beb5;}.e0363891-7cb5-4c22-99dd-96d7a0b89452{fill:#d8924c;}.b32ce2ac-2f11-4862-b0bf-6102dc07ede6{fill:#504f56;}.b4f640cf-16ad-4cde-9b1e-897146ed49fb{fill:#7abde6;}.e8d3e849-3d72-4398-92ec-34843b4409aa{fill:#5498c7;}.aaa9945d-d293-4cff-ad88-b99ddcb1730d{fill:#d4e0ee;}.ac13e004-7714-440e-b0b1-5ababf4446a2{fill:#ced9e4;}.ea84aac9-c1dd-4549-85a5-1728af9d2dd5{fill:#e6f1fc;}.a880539e-0123-45d9-8dcf-cc0ff41ccd9f{fill:#e5cdb3;}.aa8757fa-00d4-4658-ad71-e2bad21b35c4{fill:#d9bc89;}</style></defs><g id="eb3a09e2-cc43-4d30-b684-b9c740abe6df" data-name="Layer 2"><g id="f42a1e15-2ccb-4da4-b4a5-43e44d7b151d" data-name="Layer 5 copy"><path class="af302056-3501-413f-827d-a0f56d33d241" d="M1024,0H582.16a20.79,20.79,0,0,0-20.79,20.78V429.56H1024Z"/><path class="ac28f8ed-abee-4c94-8b18-a7c4be674ea1" d="M1037.39,878.29h441.83A20.79,20.79,0,0,0,1500,857.5V443H1037.39Z"/><path class="bae8801a-185b-4879-aeb2-82cdad8a893d" d="M586.92,760a14.63,14.63,0,0,1,13.64-9.46h0l347.64.78a14.55,14.55,0,0,1,13.63,19.59L922.35,878.29H1024V443H561.37V828.34Z"/><path class="bcec7ef7-23c1-497f-b90e-a3a322d9370a" d="M1500,429.56V20.78A20.79,20.79,0,0,0,1479.22,0H1037.39V429.56Z"/><path class="ae0f5189-a2a0-4863-8d69-e71debaaa20f" d="M1387.69,878.29c-.45-13.18-1.24-26.2-2.38-39.85l-6.59-86.65c-1-11.48-8.11-24-18.64-28.7,0,0-54.27-19.39-63.47-21.86,0,0-7.91-17.22-8.91-17.38a177.05,177.05,0,0,0-48.94-.55c-2.15.28-8.71,17.34-10.82,17.7l-58.4,22.63A34.51,34.51,0,0,0,1150,751.25l-6.2,98.57q-1.47,14.2-2.12,28.47Z"/><rect class="f55ddc67-277c-4ef2-b239-96e9315ff4b5" x="1357.69" y="750.92" width="10.5" height="10.5"/><rect class="f55ddc67-277c-4ef2-b239-96e9315ff4b5" x="1357.69" y="772.82" width="10.5" height="10.5"/><rect class="f55ddc67-277c-4ef2-b239-96e9315ff4b5" x="1269.25" y="861.26" width="10.5" height="10.5"/><path class="f55ddc67-277c-4ef2-b239-96e9315ff4b5" d="M1279.75,694.88V682.82c-3.26-.34-6.78-.61-10.5-.77v12.83Z"/><rect class="f55ddc67-277c-4ef2-b239-96e9315ff4b5" x="1269.25" y="839.36" width="10.5" height="10.5"/><path class="f55ddc67-277c-4ef2-b239-96e9315ff4b5" d="M1368.19,728.79c-.2-.21-.41-.41-.63-.61h-9.87v10.5h10.5Z"/><rect class="f55ddc67-277c-4ef2-b239-96e9315ff4b5" x="1357.69" y="861.26" width="10.5" height="10.5"/><path class="f55ddc67-277c-4ef2-b239-96e9315ff4b5" d="M1335.79,716.78h6.51l-6.51-2.29Z"/><rect class="f55ddc67-277c-4ef2-b239-96e9315ff4b5" x="1335.79" y="728.18" width="10.5" height="10.5"/><rect class="f55ddc67-277c-4ef2-b239-96e9315ff4b5" x="1357.69" y="816.62" width="10.5" height="10.5"/><rect class="f55ddc67-277c-4ef2-b239-96e9315ff4b5" x="1357.69" y="839.36" width="10.5" height="10.5"/><rect class="f55ddc67-277c-4ef2-b239-96e9315ff4b5" x="1357.69" y="794.72" width="10.5" height="10.5"/><rect class="f55ddc67-277c-4ef2-b239-96e9315ff4b5" x="1269.25" y="706.28" width="10.5" height="10.5"/><rect class="f55ddc67-277c-4ef2-b239-96e9315ff4b5" x="1224.61" y="816.62" width="10.5" height="10.5"/><rect class="f55ddc67-277c-4ef2-b239-96e9315ff4b5" x="1224.61" y="794.72" width="10.5" height="10.5"/><rect class="f55ddc67-277c-4ef2-b239-96e9315ff4b5" x="1224.61" y="728.18" width="10.5" height="10.5"/><rect class="f55ddc67-277c-4ef2-b239-96e9315ff4b5" x="1224.61" y="772.82" width="10.5" height="10.5"/><rect class="f55ddc67-277c-4ef2-b239-96e9315ff4b5" x="1224.61" y="861.26" width="10.5" height="10.5"/><rect class="f55ddc67-277c-4ef2-b239-96e9315ff4b5" x="1224.61" y="750.92" width="10.5" height="10.5"/><rect class="f55ddc67-277c-4ef2-b239-96e9315ff4b5" x="1269.25" y="750.92" width="10.5" height="10.5"/><rect class="f55ddc67-277c-4ef2-b239-96e9315ff4b5" x="1269.25" y="794.72" width="10.5" height="10.5"/><rect class="f55ddc67-277c-4ef2-b239-96e9315ff4b5" x="1269.25" y="772.82" width="10.5" height="10.5"/><rect class="f55ddc67-277c-4ef2-b239-96e9315ff4b5" x="1335.79" y="750.92" width="10.5" height="10.5"/><rect class="f55ddc67-277c-4ef2-b239-96e9315ff4b5" x="1269.25" y="816.62" width="10.5" height="10.5"/><rect class="f55ddc67-277c-4ef2-b239-96e9315ff4b5" x="1269.25" y="728.18" width="10.5" height="10.5"/><rect class="f55ddc67-277c-4ef2-b239-96e9315ff4b5" x="1224.61" y="839.36" width="10.5" height="10.5"/><rect class="f55ddc67-277c-4ef2-b239-96e9315ff4b5" x="1291.15" y="750.92" width="10.5" height="10.5"/><rect class="f55ddc67-277c-4ef2-b239-96e9315ff4b5" x="1313.05" y="861.26" width="10.5" height="10.5"/><rect class="f55ddc67-277c-4ef2-b239-96e9315ff4b5" x="1291.15" y="816.62" width="10.5" height="10.5"/><rect class="f55ddc67-277c-4ef2-b239-96e9315ff4b5" x="1291.15" y="706.28" width="10.5" height="10.5"/><rect class="f55ddc67-277c-4ef2-b239-96e9315ff4b5" x="1291.15" y="839.36" width="10.5" height="10.5"/><rect class="f55ddc67-277c-4ef2-b239-96e9315ff4b5" x="1291.15" y="728.18" width="10.5" height="10.5"/><rect class="f55ddc67-277c-4ef2-b239-96e9315ff4b5" x="1291.15" y="794.72" width="10.5" height="10.5"/><polygon class="f55ddc67-277c-4ef2-b239-96e9315ff4b5" points="1379.59 816.62 1379.59 827.12 1384.45 827.12 1383.65 816.62 1379.59 816.62"/><rect class="f55ddc67-277c-4ef2-b239-96e9315ff4b5" x="1291.15" y="861.26" width="10.5" height="10.5"/><path class="f55ddc67-277c-4ef2-b239-96e9315ff4b5" d="M1379.59,849.86h6.6c-.24-3.47-.51-7-.8-10.5h-5.8Z"/><polygon class="f55ddc67-277c-4ef2-b239-96e9315ff4b5" points="1379.59 794.72 1379.59 805.22 1382.78 805.22 1381.98 794.72 1379.59 794.72"/><path class="f55ddc67-277c-4ef2-b239-96e9315ff4b5" d="M1291.15,689.8v5.08h2.48C1292.84,693.22,1292,691.44,1291.15,689.8Z"/><rect class="f55ddc67-277c-4ef2-b239-96e9315ff4b5" x="1313.05" y="728.18" width="10.5" height="10.5"/><rect class="f55ddc67-277c-4ef2-b239-96e9315ff4b5" x="1335.79" y="839.36" width="10.5" height="10.5"/><rect class="f55ddc67-277c-4ef2-b239-96e9315ff4b5" x="1313.05" y="839.36" width="10.5" height="10.5"/><rect class="f55ddc67-277c-4ef2-b239-96e9315ff4b5" x="1335.79" y="861.26" width="10.5" height="10.5"/><rect class="f55ddc67-277c-4ef2-b239-96e9315ff4b5" x="1335.79" y="794.72" width="10.5" height="10.5"/><rect class="f55ddc67-277c-4ef2-b239-96e9315ff4b5" x="1335.79" y="816.62" width="10.5" height="10.5"/><path class="f55ddc67-277c-4ef2-b239-96e9315ff4b5" d="M1323.55,710.21c-3.63-1.27-7.19-2.5-10.5-3.63v10.2h10.5Z"/><rect class="f55ddc67-277c-4ef2-b239-96e9315ff4b5" x="1313.05" y="816.62" width="10.5" height="10.5"/><rect class="f55ddc67-277c-4ef2-b239-96e9315ff4b5" x="1313.05" y="794.72" width="10.5" height="10.5"/><rect class="f55ddc67-277c-4ef2-b239-96e9315ff4b5" x="1335.79" y="772.82" width="10.5" height="10.5"/><rect class="f55ddc67-277c-4ef2-b239-96e9315ff4b5" x="1313.05" y="772.82" width="10.5" height="10.5"/><rect class="f55ddc67-277c-4ef2-b239-96e9315ff4b5" x="1313.05" y="750.92" width="10.5" height="10.5"/><rect class="f55ddc67-277c-4ef2-b239-96e9315ff4b5" x="1291.15" y="772.82" width="10.5" height="10.5"/><rect class="f55ddc67-277c-4ef2-b239-96e9315ff4b5" x="1224.61" y="706.28" width="10.5" height="10.5"/><rect class="f55ddc67-277c-4ef2-b239-96e9315ff4b5" x="1180.69" y="750.92" width="10.5" height="10.5"/><polygon class="f55ddc67-277c-4ef2-b239-96e9315ff4b5" points="1191.19 715.24 1187.21 716.78 1191.19 716.78 1191.19 715.24"/><path class="f55ddc67-277c-4ef2-b239-96e9315ff4b5" d="M1146.55,861.26h-3.77q-.42,5.25-.73,10.5h4.5Z"/><rect class="f55ddc67-277c-4ef2-b239-96e9315ff4b5" x="1158.79" y="772.82" width="10.5" height="10.5"/><rect class="f55ddc67-277c-4ef2-b239-96e9315ff4b5" x="1158.79" y="750.92" width="10.5" height="10.5"/><rect class="f55ddc67-277c-4ef2-b239-96e9315ff4b5" x="1180.69" y="861.26" width="10.5" height="10.5"/><rect class="f55ddc67-277c-4ef2-b239-96e9315ff4b5" x="1180.69" y="794.72" width="10.5" height="10.5"/><rect class="f55ddc67-277c-4ef2-b239-96e9315ff4b5" x="1180.69" y="839.36" width="10.5" height="10.5"/><rect class="f55ddc67-277c-4ef2-b239-96e9315ff4b5" x="1180.69" y="816.62" width="10.5" height="10.5"/><rect class="f55ddc67-277c-4ef2-b239-96e9315ff4b5" x="1180.69" y="772.82" width="10.5" height="10.5"/><path class="f55ddc67-277c-4ef2-b239-96e9315ff4b5" d="M1386.92,861.26h-7.33v10.5h7.85C1387.29,868.26,1387.12,864.77,1386.92,861.26Z"/><polygon class="f55ddc67-277c-4ef2-b239-96e9315ff4b5" points="1379.59 783.32 1381.12 783.32 1380.32 772.82 1379.59 772.82 1379.59 783.32"/><rect class="f55ddc67-277c-4ef2-b239-96e9315ff4b5" x="1180.69" y="728.18" width="10.5" height="10.5"/><rect class="f55ddc67-277c-4ef2-b239-96e9315ff4b5" x="1158.79" y="794.72" width="10.5" height="10.5"/><rect class="f55ddc67-277c-4ef2-b239-96e9315ff4b5" x="1247.35" y="728.18" width="10.5" height="10.5"/><rect class="f55ddc67-277c-4ef2-b239-96e9315ff4b5" x="1247.35" y="750.92" width="10.5" height="10.5"/><rect class="f55ddc67-277c-4ef2-b239-96e9315ff4b5" x="1247.35" y="706.28" width="10.5" height="10.5"/><polygon class="f55ddc67-277c-4ef2-b239-96e9315ff4b5" points="1213.21 716.78 1213.21 706.7 1202.71 710.77 1202.71 716.78 1213.21 716.78"/><path class="f55ddc67-277c-4ef2-b239-96e9315ff4b5" d="M1257.85,681.9c-3.41.06-6.92.22-10.5.5v12.48h10.5Z"/><rect class="f55ddc67-277c-4ef2-b239-96e9315ff4b5" x="1247.35" y="772.82" width="10.5" height="10.5"/><path class="f55ddc67-277c-4ef2-b239-96e9315ff4b5" d="M1235.11,688.61c-1,2-2.12,4.23-3.16,6.27h3.16Z"/><rect class="f55ddc67-277c-4ef2-b239-96e9315ff4b5" x="1247.35" y="861.26" width="10.5" height="10.5"/><rect class="f55ddc67-277c-4ef2-b239-96e9315ff4b5" x="1247.35" y="839.36" width="10.5" height="10.5"/><rect class="f55ddc67-277c-4ef2-b239-96e9315ff4b5" x="1247.35" y="794.72" width="10.5" height="10.5"/><rect class="f55ddc67-277c-4ef2-b239-96e9315ff4b5" x="1247.35" y="816.62" width="10.5" height="10.5"/><rect class="f55ddc67-277c-4ef2-b239-96e9315ff4b5" x="1202.71" y="839.36" width="10.5" height="10.5"/><path class="f55ddc67-277c-4ef2-b239-96e9315ff4b5" d="M1146.55,839.36h-2.06l-.66,10.46v0h2.72Z"/><rect class="f55ddc67-277c-4ef2-b239-96e9315ff4b5" x="1158.79" y="861.26" width="10.5" height="10.5"/><polygon class="f55ddc67-277c-4ef2-b239-96e9315ff4b5" points="1146.55 827.12 1146.55 816.62 1145.92 816.62 1145.26 827.12 1146.55 827.12"/><rect class="f55ddc67-277c-4ef2-b239-96e9315ff4b5" x="1158.79" y="839.36" width="10.5" height="10.5"/><rect class="f55ddc67-277c-4ef2-b239-96e9315ff4b5" x="1158.79" y="816.62" width="10.5" height="10.5"/><path class="f55ddc67-277c-4ef2-b239-96e9315ff4b5" d="M1158.79,731.62v7.06h10.51v-10.5h-6.89A34.63,34.63,0,0,0,1158.79,731.62Z"/><rect class="f55ddc67-277c-4ef2-b239-96e9315ff4b5" x="1202.71" y="772.82" width="10.5" height="10.5"/><rect class="f55ddc67-277c-4ef2-b239-96e9315ff4b5" x="1202.71" y="728.18" width="10.5" height="10.5"/><rect class="f55ddc67-277c-4ef2-b239-96e9315ff4b5" x="1202.71" y="816.62" width="10.5" height="10.5"/><rect class="f55ddc67-277c-4ef2-b239-96e9315ff4b5" x="1202.71" y="794.72" width="10.5" height="10.5"/><rect class="f55ddc67-277c-4ef2-b239-96e9315ff4b5" x="1202.71" y="750.92" width="10.5" height="10.5"/><rect class="f55ddc67-277c-4ef2-b239-96e9315ff4b5" x="1202.71" y="861.26" width="10.5" height="10.5"/><path class="b1206244-8002-49e3-96e7-02f05525ee4c" d="M1346.39,876.92h0a1,1,0,0,1-1-1c0-4.61,0-9.55,0-14.62-.08-22.58-.17-48.17,1.32-59.57a162.18,162.18,0,0,1,6.76-30.65,1,1,0,0,1,1.9.64,160.72,160.72,0,0,0-6.66,30.27c-1.48,11.27-1.39,36.79-1.31,59.3,0,5.08,0,10,0,14.63A1,1,0,0,1,1346.39,876.92Z"/><path class="b1206244-8002-49e3-96e7-02f05525ee4c" d="M1183.25,877h0a1,1,0,0,1-1-1c0-.53,1.24-53.91-3.88-79.94a191.6,191.6,0,0,0-6.95-25.75,1,1,0,1,1,1.9-.67,194.26,194.26,0,0,1,7,26c5.17,26.25,3.94,79.84,3.92,80.38A1,1,0,0,1,1183.25,877Z"/><path class="b1206244-8002-49e3-96e7-02f05525ee4c" d="M1227.71,741a.84.84,0,0,1-.38-.08,1,1,0,0,1-.63-1l.88-36a1,1,0,0,1,1-1,1,1,0,0,1,1,1l-.81,33.38,24.51-26a1,1,0,0,1,1.47,1.38l-26.32,27.92A1,1,0,0,1,1227.71,741Z"/><path class="b1206244-8002-49e3-96e7-02f05525ee4c" d="M1298.18,741a1,1,0,0,1-.73-.32l-26.32-27.92a1,1,0,0,1,1.47-1.38l24.51,26-.81-33.38a1,1,0,0,1,1-1,1,1,0,0,1,1,1l.88,36a1,1,0,0,1-.63,1A.84.84,0,0,1,1298.18,741Z"/><path class="b1206244-8002-49e3-96e7-02f05525ee4c" d="M1265.86,876.69a1,1,0,0,1-1-1l-3-145.64a1,1,0,0,1,2,0l3,145.64a1,1,0,0,1-1,1Z"/><path class="bee9b339-a57f-4596-a59a-916b7706a201" d="M1319.51,611.29c5.06-8,8.34-17,6-26.23a5.43,5.43,0,0,0,4.63,2.2,5.52,5.52,0,0,0,4.36-2.68,8.92,8.92,0,0,0,.58-6.12c-1-5.56-4-10.56-6.89-15.43a5.62,5.62,0,0,0,3.65,1.84c2.18,0,3.93-2,4.27-4.19a11.74,11.74,0,0,0-1.28-6.3,51.15,51.15,0,0,0-14.35-19.07,19.31,19.31,0,0,0,4.56.5,4.9,4.9,0,0,0,3.87-2.09c1.14-1.87.39-4.31-.72-6.2a29.39,29.39,0,0,0-7.52-7.93,71,71,0,0,0-13.46-8.22c-2.68-1.25-5.73-2.35-8.54-1.43,1.34-3.14,2.35-5.93,2.43-8.75a4.56,4.56,0,0,0-.46-2.4,4.41,4.41,0,0,0-1.46-1.42,15.18,15.18,0,0,0-10.82-2,28.05,28.05,0,0,0-10.31,4.32c-.35-2.58-.31-4.91-1-7.06a6.54,6.54,0,0,0-4.68-4.5,8.6,8.6,0,0,0-4,.5,43.17,43.17,0,0,0-24.12,19.12,48.22,48.22,0,0,0-10.44-7.4,21.2,21.2,0,0,0-12.43-2.27c-1.6.24-3.34.86-4.07,2.31a5.34,5.34,0,0,0-.45,1.94,17.55,17.55,0,0,0,6.19,14.79,30.13,30.13,0,0,0-11.88-1.37c-6,.59-13.84,4.28-13.13,7.7.38,1.85,2.29,5,8.52,6.88A23.31,23.31,0,0,0,1197,534a16.78,16.78,0,0,0-7.35,9.75,3.24,3.24,0,0,0,0,1.9,3.08,3.08,0,0,0,1.14,1.29,8.31,8.31,0,0,0,4.66,1.52,19.11,19.11,0,0,0-4.76,4.61,35,35,0,0,0-3.79,5.27A28.88,28.88,0,0,0,1184,568c-.35,2.36-.56,4.9.6,7a4.39,4.39,0,0,0,1.67,1.72,5.41,5.41,0,0,0,4.11.07,28.89,28.89,0,0,0,4.1-1.82,7.62,7.62,0,0,0-2.22,3.21c-1.36,3-2.63,6.47-1.51,9.61.78,2.19,2.6,3.84,4.43,5.28a3.53,3.53,0,0,1,.86.82,4.07,4.07,0,0,1,.53,1.41c1,4.28,2.71,8.61,6,11.56a6.46,6.46,0,0,0,2.46.92c1.13,5,5.83,8.18,9,12.18Z"/><path class="a0fc1ea7-eb00-4279-a57b-c96bb9a32f27" d="M1239.81,691.16a23.14,23.14,0,0,0,5,10.4,54.24,54.24,0,0,0,10.58,9.11c1,.66,8.23,14,8.23,14s5.87-13.61,6.7-14c6.4-3.28,12.78-7.4,15.92-18.9a19.68,19.68,0,0,1-1.23-4.93c-1.06-9,.23-13.29,1.76-22.21l-48.89-.33a64.1,64.1,0,0,1,3.47,18.16A20.39,20.39,0,0,1,1239.81,691.16Z"/><path class="ee361fea-a0ea-4215-bff5-25e37249ce7e" d="M1315.38,608.65c1.29-2.25,2.92-4.74,5.49-5.13a5.45,5.45,0,0,1,4.3,1.4,10.64,10.64,0,0,1,2.63,3.8,21.79,21.79,0,0,1,.47,15.89,25.66,25.66,0,0,1-9.89,12.57,14,14,0,0,1-5.15,2.33,9.38,9.38,0,0,1-6.39-1.1Z"/><path class="ee361fea-a0ea-4215-bff5-25e37249ce7e" d="M1207.4,608.48c-1.28-2.26-2.91-4.75-5.48-5.15a5.52,5.52,0,0,0-4.3,1.38,10.66,10.66,0,0,0-2.64,3.8,21.77,21.77,0,0,0-.53,15.88,25.76,25.76,0,0,0,9.86,12.61,14,14,0,0,0,5.15,2.35,9.34,9.34,0,0,0,6.38-1.09Z"/><path class="ee361fea-a0ea-4215-bff5-25e37249ce7e" d="M1311.16,567.11c-11.85-29.4-34.32-34-49.47-34s-37.5,4.16-49.58,33.86a85.68,85.68,0,0,0-5.43,41.12c2.22,20.95,12.23,44.28,24,53.76,11,8.87,23.29,12.71,31.49,12.73,9.23,0,21.79-6.58,29.77-12.69,12.64-9.66,22.19-32.68,24.47-53.63A85.76,85.76,0,0,0,1311.16,567.11Z"/><path class="bee9b339-a57f-4596-a59a-916b7706a201" d="M1206.58,607.12c4-.34,9.6-10.86,4.94-19.9,8.71-1.38,14.39-6.3,11-18,8.11,2,18.1-5.28,18.1-15.19,3.76,6.13,19,6.82,23.63-1.23,3.89,8.7,12.06,9,20.78,5,2.21,7.65,8.82,12.51,15.42,12.07-1.54,12.58,7.06,17.27,12.27,18.77-3.84,8.24-.22,14.17,3.91,18l5.72-17.12-8-39.17L1305.94,530l-30-9.9-33.1-.3-26.75,16.11-9.75,26.16-3,24.68Z"/><path class="a92c42b6-07f9-4567-9370-2dc1e57f196e" d="M1261.68,653.7c-6.28,0-11.52-2.73-15.57-8.13a1,1,0,1,1,1.61-1.21c3.65,4.87,8.34,7.33,14,7.33,4.84,0,9.79-3,13.24-7.91a1,1,0,0,1,1.4-.25,1,1,0,0,1,.25,1.4C1272.69,650.51,1267.26,653.7,1261.68,653.7Z"/><path class="f1041a98-5886-437e-9ae4-03b53177f65f" d="M1236.7,597.37c-2.31,0-4.94,3.73-4.62,10.22.31,6.22,2.57,9.8,5.21,9.81,2.37,0,4.14-4,4.15-9.78S1239,597.37,1236.7,597.37Z"/><path class="f1041a98-5886-437e-9ae4-03b53177f65f" d="M1285,597.45c-2.3,0-4.93,3.73-4.61,10.22.3,6.22,2.57,9.81,5.2,9.81,2.37,0,4.15-4,4.16-9.78C1289.72,601.78,1287.26,597.45,1285,597.45Z"/><path class="bee9b339-a57f-4596-a59a-916b7706a201" d="M1275.32,589.69c.9-3,2.55-6.32,5.53-8.37a8.65,8.65,0,0,1,4.86-1.75c1.53,0,7.85,1.48,9.28,5.78.11.33.12.78-.31.92a1.18,1.18,0,0,1-.59,0,38.21,38.21,0,0,0-10.41,0A24.25,24.25,0,0,0,1275.32,589.69Z"/><path class="bee9b339-a57f-4596-a59a-916b7706a201" d="M1247.29,589.69c-.91-3-2.56-6.32-5.53-8.37a8.65,8.65,0,0,0-4.86-1.75c-1.53,0-7.86,1.48-9.28,5.78-.11.33-.12.78.3.92a1.22,1.22,0,0,0,.6,0,38.21,38.21,0,0,1,10.41,0A24.25,24.25,0,0,1,1247.29,589.69Z"/><path class="b2da9e43-dd8a-4fec-b5fd-1d78a7a4be87" d="M1211.74,632.46a.83.83,0,0,1-.78-.54,11.75,11.75,0,0,0-1.8-2.82,15.47,15.47,0,0,1-1.83-2.75,13.7,13.7,0,0,1-1-5.21c0-.49-.06-1-.11-1.49a16,16,0,0,0-5-9.9.84.84,0,0,1-.12-1.18.83.83,0,0,1,1.18-.11,17.47,17.47,0,0,1,5.61,11c.05.51.08,1,.12,1.54a12.19,12.19,0,0,0,.87,4.6,13.14,13.14,0,0,0,1.63,2.44,12.93,12.93,0,0,1,2,3.25.83.83,0,0,1-.48,1.08A.8.8,0,0,1,1211.74,632.46Z"/><path class="b2da9e43-dd8a-4fec-b5fd-1d78a7a4be87" d="M1311.3,632.62a.8.8,0,0,1-.3-.06.83.83,0,0,1-.48-1.08,13,13,0,0,1,2-3.24,13.91,13.91,0,0,0,1.64-2.44,12.19,12.19,0,0,0,.89-4.59c0-.52.07-1,.12-1.55a17.51,17.51,0,0,1,5.64-11,.84.84,0,0,1,1.07,1.3,15.9,15.9,0,0,0-5,9.88q-.08.75-.12,1.5a13.58,13.58,0,0,1-1,5.21,15.21,15.21,0,0,1-1.83,2.74,11.55,11.55,0,0,0-1.81,2.81A.84.84,0,0,1,1311.3,632.62Z"/><path class="a112f603-05dc-4b1a-a716-4cd3d6ab1ca3" d="M903.77,751.22c-1.15-11.32-8.22-23.55-18.58-28.13l-44-16.21c-10.16-4.49-12.74-4.64-19.45-5.65l-4.8-.73a208.52,208.52,0,0,0-63.87.5c-7.87,1.31-9.86,2.94-22.72,7.15l-35.68,15.48a34.54,34.54,0,0,0-19.44,27.07Z"/><path class="b48d6297-d160-43ac-9b54-1151141e53c6" d="M787.48,737.86c-.59,0-1.17,0-1.76,0-16.85-.62-39.23-7.23-51.49-23.87a1,1,0,0,1,.22-1.41,1,1,0,0,1,1.4.22c11.84,16.07,33.56,22.44,49.94,23,22.17.81,47.12-15.45,53.71-24a1,1,0,1,1,1.6,1.22C834.28,721.89,810.18,737.86,787.48,737.86Z"/><path class="b58595c1-0a69-476d-a343-7990c99ca41c" d="M787.19,725.74c23.48,0,39.88-16,42.25-18.84-4.44-1.72-17.8-6.77-19.37-20.06-1.06-9,.23-13.29,1.76-22.21l-48.89-.33a64.1,64.1,0,0,1,3.47,18.16,20.15,20.15,0,0,1-6.71,16.1,30.48,30.48,0,0,1-9.6,6l-5.32,2.32C746.48,708.61,762.94,725.7,787.19,725.74Z"/><path class="b25672e5-f5fc-4f83-b86b-19a6793772ba" d="M855.85,561.16c-1.22-25.63-37.63-54.42-67.07-52.73a19.21,19.21,0,0,0-13.94,6.6c.07-.47,6.57-9.5,7.6-20.09-5.48,1.24-10.28,7.36-12.61,12.3A17.43,17.43,0,0,0,768.56,518l-.28.35c-14.61-9.06-54.14,22.1-51.43,46.49.33-5.11,4.23-11.2,9-13.15-9.88,16.8-10.58,40.49,2.72,63.28l114.87-4.57c8.52-8.17,10-19.92,10.85-29.3,1-10.28-3.11-23.52-7.28-29.94C850.74,552.73,854.33,557,855.85,561.16Z"/><path class="bd5d0e22-9c57-4fcd-8968-f6a72b03d673" d="M840.49,608.65c1.29-2.25,2.92-4.74,5.49-5.13a5.45,5.45,0,0,1,4.3,1.4,10.49,10.49,0,0,1,2.62,3.8,21.74,21.74,0,0,1,.48,15.89,25.72,25.72,0,0,1-9.89,12.57,14,14,0,0,1-5.15,2.33,9.37,9.37,0,0,1-6.39-1.1Z"/><path class="bd5d0e22-9c57-4fcd-8968-f6a72b03d673" d="M732.51,608.48c-1.29-2.26-2.91-4.75-5.48-5.15a5.52,5.52,0,0,0-4.3,1.38,10.66,10.66,0,0,0-2.64,3.8,21.77,21.77,0,0,0-.53,15.88A25.76,25.76,0,0,0,729.42,637a14,14,0,0,0,5.14,2.35,9.37,9.37,0,0,0,6.39-1.09Z"/><path class="bd5d0e22-9c57-4fcd-8968-f6a72b03d673" d="M836.27,567.11c-11.85-29.4-34.33-34-49.47-34s-37.5,4.16-49.59,33.86a85.81,85.81,0,0,0-5.42,41.12C734,629,744,652.35,755.84,661.83c11,8.87,23.29,12.71,31.49,12.73,9.23,0,21.79-6.58,29.77-12.69,12.64-9.66,22.19-32.68,24.47-53.63A85.76,85.76,0,0,0,836.27,567.11Z"/><path class="b25672e5-f5fc-4f83-b86b-19a6793772ba" d="M836.4,620.9c10.1-11.38,15.54-45.27-4.3-74.72-10.91-16.21-36.38-22.87-50.83-20.76-13.22,1.93-35.73,4.24-49,32.74-5.71,12.3-12.75,40.92,5.23,63.26-1.73-11.45,2-31.39,11.47-40.81a29.38,29.38,0,0,0,1.93,14.08c6.33-5.09,15.15-12.42,20-27,9.12,19.14,15.36,24.89,30.37,27.7a35.23,35.23,0,0,0-2-19.45c3.78,10.85,14.1,18.36,22.09,22.16,1-5.27,2.71-10.94,1.37-18.17C833.81,591.08,837.31,613.81,836.4,620.9Z"/><path class="b43e1b81-4be6-4177-a799-dc869303a08e" d="M761.81,597.37c-2.31,0-4.94,3.73-4.62,10.22.31,6.22,2.57,9.8,5.21,9.81,2.37,0,4.14-4,4.15-9.78S764.1,597.37,761.81,597.37Z"/><path class="b43e1b81-4be6-4177-a799-dc869303a08e" d="M810.08,597.45c-2.3,0-4.94,3.73-4.61,10.22.3,6.22,2.57,9.81,5.2,9.81,2.37,0,4.15-4,4.16-9.78C814.83,601.78,812.37,597.45,810.08,597.45Z"/><path class="f9984349-6387-41fc-b654-16e61e4df6c9" d="M736.85,632.46a.82.82,0,0,1-.78-.54,12.07,12.07,0,0,0-1.8-2.82,15,15,0,0,1-1.83-2.75,13.7,13.7,0,0,1-1-5.21c0-.5-.06-1-.11-1.49a16,16,0,0,0-5-9.9.85.85,0,0,1-.11-1.18.83.83,0,0,1,1.18-.11,17.47,17.47,0,0,1,5.61,11c0,.51.08,1,.11,1.54a12.43,12.43,0,0,0,.88,4.6,13.14,13.14,0,0,0,1.63,2.44,12.93,12.93,0,0,1,2,3.25.83.83,0,0,1-.48,1.08A.8.8,0,0,1,736.85,632.46Z"/><path class="f9984349-6387-41fc-b654-16e61e4df6c9" d="M836.41,632.62a.8.8,0,0,1-.3-.06.83.83,0,0,1-.48-1.08,13,13,0,0,1,2-3.24,13.91,13.91,0,0,0,1.64-2.44,12.24,12.24,0,0,0,.89-4.6c0-.51.07-1,.12-1.54a17.51,17.51,0,0,1,5.64-11,.84.84,0,1,1,1.06,1.3,15.94,15.94,0,0,0-5,9.88q-.07.75-.12,1.5a13.58,13.58,0,0,1-1,5.21,15.21,15.21,0,0,1-1.83,2.74,11.55,11.55,0,0,0-1.81,2.81A.84.84,0,0,1,836.41,632.62Z"/><path class="b25672e5-f5fc-4f83-b86b-19a6793772ba" d="M749.26,580.55c4.75-.52,15,2.31,19.8,8.1-4.94.72-13.25.94-17-2C748.93,584.13,749,580.58,749.26,580.55Z"/><path class="b25672e5-f5fc-4f83-b86b-19a6793772ba" d="M820.06,580.71c-4.75-.54-15,2.24-19.82,8,4.93.74,13.24,1,17-1.94C820.37,584.29,820.31,580.74,820.06,580.71Z"/><path class="a34297a1-fa26-487e-9224-e4b414941c93" d="M772,645.29c3.58-2.28,7.59-4.93,14.13-4.92a26.63,26.63,0,0,1,14.7,4.31c-3.24,4.63-7,11.12-14.07,11.11S775,649.29,772,645.29Z"/><path class="a52c2592-4b33-484b-8973-1c67d1cf7911" d="M765.52,68.32c-3.64-2.07-13.54.54-18.1,4.68-12.81,11.62-39.57,35.73-36,107.17,2,40.62,20.69,61.56,40.71,78.6,0,0,82.84,3.28,81.85.91,20.59-18.54,34.6-48.35,33.41-84.65-3.3-100.36-62.76-116.5-75.74-116.5C780.93,58.53,771.23,61.24,765.52,68.32Z"/><path class="acb87607-a532-4534-ab10-cee995699aaf" d="M906.6,429.55c-.43-13.18-1.18-26.19-2.26-39.84l-6.27-86.66c-.91-11.47-7.69-24-17.69-28.69l-41.81-16.21c-9.65-4.49-12.11-4.64-18.48-5.66l-4.56-.72a188.21,188.21,0,0,0-60.66.49h0c-7.47,1.32-9.36,2.94-21.58,7.16L699.4,274.89a34.55,34.55,0,0,0-18.53,27.63L675,401.09q-1.4,14.19-2,28.46Z"/><path class="b7ef5e91-6e95-4be0-ba0c-f4a3fd119c2b" d="M768.89,217.1c-12.94,2.2-27.76,5.39-38.77,12.55-3.41,2.21-6.88,5.21-6.59,10.29-.78,4.33,2.65,8.17,5.89,11.15,6.66,6.14,13.85,12,22.39,15.09,10.72,3.83,24.37,2.1,33.74,10.23a26.56,26.56,0,0,1,13.7-6.93c4.54-.6,7.64-.3,12.22-.37a56.19,56.19,0,0,0,28.27-7.89c11.78-7.12,17.27-14.27,13-24-3.49-7.84-17.42-16.07-32.32-19.25C801.38,213.92,780.27,215.17,768.89,217.1Z"/><path class="b4a27288-841b-45a0-b3e5-450773badee9" d="M735,256.8a24,24,0,0,0,11-6.9,71.68,71.68,0,0,0,7.85-10.53c1.06-1.63,2-3.58,3.78-4.4,4.94-2.3,24.18-2.91,28.17-3.07,3.74-.15,26.33,1.17,32.84,3.89,3.54,4.85,7.77,10.26,12.25,14.26,5.22,4.67,11.89,7.95,18.1,11.22l-7.56,7.25L815.19,277,785,282.83l-33.43-8.91L737,263.24Z"/><path class="fc5cb312-bed5-49e9-b7c2-f5912b6a841f" d="M769,269a33.14,33.14,0,0,0,7.62,5.09,29.58,29.58,0,0,0,9.55,2.32c8.15.75,16.69-.79,23.43-5.43a25,25,0,0,0,10.76-17.28c-4.71-3.13-9.41-8-10.3-15.57-1.06-9,.23-13.3,1.76-22.22l-48.89-.32a64,64,0,0,1,3.47,18.15,20.16,20.16,0,0,1-6.71,16.11c-1,.85-2.05,1.71-3.17,2.51C758.93,258.88,763.67,264.44,769,269Z"/><path class="acb87607-a532-4534-ab10-cee995699aaf" d="M860.14,260c-.1-2.78-1.41-5.35-2.68-7.82a10,10,0,0,1-1.3-3.63,10.36,10.36,0,0,1,.58-3.64,17.66,17.66,0,0,0,.87-6.27,6.72,6.72,0,0,0-3.07-5.29A83.34,83.34,0,0,0,825.48,215c-9.7-3.68-20.33-4-30.7-3.65-22.67.73-45.6,4.44-66,14.39-3.86,1.88-7.91,4.32-9.34,8.38-1.3,3.7-.07,7.74.77,11.58s1.07,8.34-1.65,11.16c-1.24,1.29-2.92,2-4.33,3.11s-2.61,2.81-2.21,4.54c.75,3.19,5.54,3.08,8.35,5.56,5.12,2.79,10.43,5.22,16.85,8.09a82,82,0,0,0,15,8.92,178.29,178.29,0,0,0,66.25.45,32.31,32.31,0,0,0,20.95-10.43c1.28-1.42,2.55-3,3.75-3.16,4.81-1.86,8.42-6.2,12.91-7.45C858.74,265.79,860.24,262.74,860.14,260Zm-22.92.37a53.4,53.4,0,0,1-26.88,7.5c-4.35.07-7.29-.22-11.61.35a25.22,25.22,0,0,0-13,6.59c-8.9-7.73-21.87-6.08-32.07-9.73-8.11-2.9-14.94-8.5-21.28-14.33-3.07-2.83-6.33-6.49-5.59-10.6-.27-4.82,3-7.67,6.26-9.78,10.47-6.8,24.55-9.83,36.85-11.92,10.81-1.84,30.87-3,48.92.82,14.16,3,27.41,10.84,30.71,18.29C853.62,246.77,848.4,253.57,837.22,260.33Z"/><path class="b4a27288-841b-45a0-b3e5-450773badee9" d="M832,280.57h-.15c-1.57-.15-57.79-1-87.3-1.49l-.21,0a154.64,154.64,0,0,1-28.63-9.75,1,1,0,0,1,.83-1.83,153,153,0,0,0,28.15,9.6c14.18.22,81.62,1.26,87.12,1.49,1-.44,2-.87,3-1.32,6.57-2.83,14-6.05,20-11.27a1,1,0,0,1,1.41.09,1,1,0,0,1-.09,1.42c-6.22,5.44-13.82,8.72-20.52,11.61l-3.21,1.4A1,1,0,0,1,832,280.57Z"/><path class="b4a27288-841b-45a0-b3e5-450773badee9" d="M793.55,290.83A234.64,234.64,0,0,1,751.19,287h0c-.76-.16-3.69-1.48-19.54-11.51a1,1,0,0,1-.32-1.39,1,1,0,0,1,1.39-.31c8.16,5.16,17.45,10.81,18.75,11.22h.08a231.22,231.22,0,0,0,66.37,2.54c6.23-1.9,18.59-8.76,25.51-14.16a1,1,0,1,1,1.23,1.58c-7.1,5.55-19.86,12.61-26.25,14.53l-.18,0A231,231,0,0,1,793.55,290.83ZM751.32,285h0Z"/><path class="b4a27288-841b-45a0-b3e5-450773badee9" d="M835,428.82a1,1,0,0,1-1-.79,144.78,144.78,0,0,1-3-28.2c-6.35-.46-51.06-.34-81.63-.13-.42,10-.92,19-2.42,27.9a1,1,0,1,1-2-.33c1.53-9,2-18.31,2.44-28.61a1,1,0,0,1,1-1c.2,0,21.12-.14,41.78-.18,12.13,0,21.8,0,28.75.06,14,.12,14,.14,14.08,1.33a146.16,146.16,0,0,0,3,28.71,1,1,0,0,1-.77,1.19A.75.75,0,0,1,835,428.82Z"/><path class="b4a27288-841b-45a0-b3e5-450773badee9" d="M864,428.85a1,1,0,0,1-1-1c-1-33.49-1-62.87.06-82.73a.72.72,0,0,1,.06-.29,34.76,34.76,0,0,1,5-9.62,1,1,0,0,1,1.55,1.28,33.18,33.18,0,0,0-4.66,8.89c-1,19.8-1,49.06,0,82.41a1,1,0,0,1-1,1Z"/><path class="b4a27288-841b-45a0-b3e5-450773badee9" d="M716.44,429.11h0a1,1,0,0,1-1-1c.69-20.12-.75-45.21-1.91-65.36-.24-4.23-.48-8.28-.68-12.07a61.6,61.6,0,0,0-8.94-16.19,1,1,0,0,1,1.56-1.27,62.85,62.85,0,0,1,9.33,16.92.92.92,0,0,1,.05.28c.21,3.83.44,7.93.69,12.21,1.16,20.2,2.6,45.33,1.91,65.55A1,1,0,0,1,716.44,429.11Z"/><path class="bb6a4b03-4b7b-4bfa-b2f4-f4009c6f9131" d="M766,369.68a117.72,117.72,0,0,1-2.31-38c.53-5.2,1.41-10.41,2.27-15.44.79-4.67,1.61-9.49,2.13-14.24,1.27-11.6.39-20.94-2.69-28.58l3.73-1.51c3.34,8.27,4.3,18.26,3,30.53-.54,4.87-1.37,9.75-2.17,14.47-.84,5-1.71,10.11-2.23,15.17a114,114,0,0,0,2.23,36.74Z"/><path class="bb6a4b03-4b7b-4bfa-b2f4-f4009c6f9131" d="M806.41,368.39l-4-.31c1-12.63-.1-25.57-1.16-38.09-.27-3.24-.55-6.47-.79-9.71-1.17-15.76-1.6-32.55,3.09-48.55l3.86,1.13c-4.51,15.38-4.08,31.74-2.94,47.13.24,3.21.52,6.44.79,9.66C806.32,342.33,807.43,355.44,806.41,368.39Z"/><path class="f1a8373d-d85b-48e8-8489-d3479457ab51" d="M840.49,159.92c1.29-2.26,2.92-4.74,5.49-5.13a5.48,5.48,0,0,1,4.3,1.39A10.61,10.61,0,0,1,852.9,160a21.72,21.72,0,0,1,.48,15.88,25.74,25.74,0,0,1-9.89,12.58,14.11,14.11,0,0,1-5.15,2.33,9.32,9.32,0,0,1-6.39-1.11Z"/><path class="f1a8373d-d85b-48e8-8489-d3479457ab51" d="M732.51,159.75c-1.29-2.26-2.91-4.75-5.48-5.15a5.48,5.48,0,0,0-4.3,1.38,10.66,10.66,0,0,0-2.64,3.8,21.77,21.77,0,0,0-.53,15.88,25.8,25.8,0,0,0,9.86,12.61,14,14,0,0,0,5.14,2.35,9.37,9.37,0,0,0,6.39-1.09Z"/><path class="f1a8373d-d85b-48e8-8489-d3479457ab51" d="M836.27,118.38c-11.85-29.4-34.33-34-49.47-34s-37.5,4.16-49.59,33.86a85.8,85.8,0,0,0-5.42,41.12c2.22,20.95,12.23,44.27,24.05,53.75,11,8.87,23.29,12.72,31.49,12.73,9.23,0,21.79-6.57,29.77-12.68,12.64-9.67,22.19-32.69,24.47-53.63A85.74,85.74,0,0,0,836.27,118.38Z"/><path class="b43e1b81-4be6-4177-a799-dc869303a08e" d="M761.81,148.63c-2.31,0-4.94,3.73-4.62,10.23.31,6.21,2.57,9.8,5.21,9.81,2.37,0,4.14-4,4.15-9.78C766.56,153,764.1,148.64,761.81,148.63Z"/><path class="b43e1b81-4be6-4177-a799-dc869303a08e" d="M810.08,148.71c-2.3,0-4.94,3.73-4.61,10.23.3,6.21,2.57,9.8,5.2,9.81,2.37,0,4.15-4,4.16-9.78C814.83,153.05,812.37,148.72,810.08,148.71Z"/><path class="a182464a-52a0-47d5-acda-f7b87c7f885d" d="M736.85,183.73a.83.83,0,0,1-.78-.54,11.86,11.86,0,0,0-1.8-2.82,15,15,0,0,1-1.83-2.75,13.75,13.75,0,0,1-1-5.22c0-.49-.06-1-.11-1.49a16,16,0,0,0-5-9.9.84.84,0,0,1,1.07-1.29,17.53,17.53,0,0,1,5.61,11c0,.52.08,1,.11,1.55a12.43,12.43,0,0,0,.88,4.6,13.83,13.83,0,0,0,1.63,2.44,12.93,12.93,0,0,1,2,3.25.83.83,0,0,1-.48,1.08A.8.8,0,0,1,736.85,183.73Z"/><path class="a182464a-52a0-47d5-acda-f7b87c7f885d" d="M836.41,183.88a.79.79,0,0,1-.3,0,.84.84,0,0,1-.48-1.09,13.19,13.19,0,0,1,2-3.24,13.48,13.48,0,0,0,1.64-2.43,12.24,12.24,0,0,0,.89-4.6c0-.51.07-1,.12-1.55a17.51,17.51,0,0,1,5.64-11,.84.84,0,1,1,1.06,1.3,15.94,15.94,0,0,0-5,9.88c0,.5-.09,1-.12,1.49a13.54,13.54,0,0,1-1,5.21,15,15,0,0,1-1.83,2.75,11.55,11.55,0,0,0-1.81,2.81A.83.83,0,0,1,836.41,183.88Z"/><path class="a52c2592-4b33-484b-8973-1c67d1cf7911" d="M729.05,153.72a108,108,0,0,0,9.27,20.22,142.27,142.27,0,0,1,.48-26.44c9.89-8,25.52-22,31.78-38.65,1.94,4.55,28.7,31.79,62.8,35,1.41,9.84,1.84,13.94,1.46,24,3.12-4.37,7.74-8.92,10.53-18.92l5.87-24.89L830,85.59,783.48,68.84l-40.27,18-20.5,44S727,148.14,729.05,153.72Z"/><path class="a52c2592-4b33-484b-8973-1c67d1cf7911" d="M768.48,136.65c-.68-3-3.76-5.48-6.93-6.33a10.34,10.34,0,0,0-6.3.06,5.54,5.54,0,0,0-3.78,4.48,3.09,3.09,0,0,0,.21,1.41,2.9,2.9,0,0,0,2.17,1.59,3.71,3.71,0,0,0,2.71-.65,10.2,10.2,0,0,1,4.12-1.28A19.83,19.83,0,0,1,768.48,136.65Z"/><path class="a52c2592-4b33-484b-8973-1c67d1cf7911" d="M802.84,136.65c.68-3,3.76-5.48,6.93-6.33a10.34,10.34,0,0,1,6.3.06,5.54,5.54,0,0,1,3.78,4.48,3.09,3.09,0,0,1-.21,1.41,2.9,2.9,0,0,1-2.17,1.59,3.71,3.71,0,0,1-2.71-.65,10.2,10.2,0,0,0-4.12-1.28A19.85,19.85,0,0,0,802.84,136.65Z"/><path class="a6584816-5686-4f04-a6c1-e28a14b9bdac" d="M786.73,190.91c-3.74,0-5.91,6.54-5.42,11.7a7.82,7.82,0,0,0,1.91,4.29c1.35,1.54,3.89,1.58,5.77.77s2.94-3.24,3.09-5.46S791.18,190.91,786.73,190.91Z"/><path class="f929bc99-9c79-45b3-9cf2-299e86cbe9b4" d="M1189.12,160.56c0,18.29,4.88,32.72,4.09,46.5-1.26,21.89-18.57,45.93-3.39,75.67,0,0,150.38,0,151.19-2,0,0,10.27-22.46-6.68-59.92-6.6-14.57.61-44,.61-57.51,0-70-35.5-99.39-73.61-99.39C1220.85,63.89,1189.12,98.9,1189.12,160.56Z"/><path class="bb324214-ce1d-4de8-8cc0-6e65ca2ecd02" d="M1309.89,185.69c0-.51-.07-1-.1-1.52L1293.46,179l-65.86.61-14.32,7.91a318.21,318.21,0,0,0,2.6,32.26c1.17,8.9,3,36.62-2.16,52a12,12,0,0,1-5.9,6.52l113.3-2C1302.2,251.43,1311.62,213.52,1309.89,185.69Z"/><path class="b4459c37-c376-4a27-a44a-84b2d748503f" d="M1315.38,159.92c1.29-2.26,2.92-4.74,5.49-5.13a5.48,5.48,0,0,1,4.3,1.39,10.76,10.76,0,0,1,2.63,3.81,21.77,21.77,0,0,1,.47,15.88,25.68,25.68,0,0,1-9.89,12.58,14.11,14.11,0,0,1-5.15,2.33,9.33,9.33,0,0,1-6.39-1.11Z"/><path class="b4459c37-c376-4a27-a44a-84b2d748503f" d="M1207.4,159.75c-1.28-2.26-2.91-4.75-5.48-5.15a5.48,5.48,0,0,0-4.3,1.38,10.66,10.66,0,0,0-2.64,3.8,21.77,21.77,0,0,0-.53,15.88,25.8,25.8,0,0,0,9.86,12.61,14,14,0,0,0,5.15,2.35,9.34,9.34,0,0,0,6.38-1.09Z"/><path class="f6a8d4a7-5a15-4ce8-a9c3-c84cf19f97c2" d="M1344.25,429.55c-.1-.28-.19-.56-.28-.83-.69-2.12-1.38-4.23-1.9-6.39-2.34-9.57-1.43-19.63.3-29.33,1.47-8.3,2.91-15.37,3.9-23.33l6,16.83c.57,1.6,1.14,3.22,1.82,4.78.16.39.34.78.52,1.16a23.6,23.6,0,0,0,1.88,3.32c.36.53.75,1,1.15,1.54a35.1,35.1,0,0,0,2.64,2.82l1.41,1.32h0l1.11,1a109.3,109.3,0,0,0,25.38,16.89,11.92,11.92,0,0,0,9.78-2.79c2.56-2.09,4.52-4.8,6.76-7.23,4.72-5.12,10.85-9.16,14-15.37,2.72-3.07,3.46-7.85,4-12.39q2.51-20,3.18-40.11c0-4.58.23-8.27,1.61-11.6,1-2.46,2.66-4.71,3.08-7.34a9.2,9.2,0,0,0-1.83-5.69l-3.36-5.52a51.23,51.23,0,0,0-4.1-6.07c-1.12-1.37-2.38-2.62-3.63-3.87-3.06-3-6.42-6.24-10.69-6.9a25.65,25.65,0,0,0-6.78-3.69,32.39,32.39,0,0,1-7.74,2.49,6,6,0,0,0-3.24,1.51c-1,1.12-1,2.75-1,4.24a26.33,26.33,0,0,1-3.72,12.23c-1.2,2-2.68,3.86-3.76,5.94-1.57-6.13-2.92-11.4-3.88-15.1-2.9-11.14-10.44-20.41-26.08-27.69l-37.27-16.21c-9.65-4.49-12.11-4.64-18.48-5.66l-4.56-.72a188.21,188.21,0,0,0-60.66.49c-7.47,1.32-9.36,2.94-21.58,7.16l-33.89,15.47a34.55,34.55,0,0,0-18.53,27.63l-5.88,98.57q-1.39,14.19-2,28.46Z"/><path class="f0ec9fc8-e927-4ec1-9838-40f7c938f4bf" d="M1264.24,289.8c8.92,0,34.94-10.82,44.66-30.12-4.7-3.13-23.05-14-23.94-21.57-1.06-9,.23-13.3,1.76-22.22l-48.89-.32a64,64,0,0,1,3.47,18.15c.58,12-23.46,26-24.66,26.82C1227.89,279.54,1255.15,289.8,1264.24,289.8Z"/><path class="b4459c37-c376-4a27-a44a-84b2d748503f" d="M1311.16,118.38c-11.85-29.4-34.32-34-49.47-34s-37.5,4.16-49.58,33.86a85.66,85.66,0,0,0-5.43,41.12c2.22,20.95,12.23,44.27,24,53.75,11,8.87,23.29,12.72,31.49,12.73,9.23,0,21.79-6.57,29.77-12.68,12.64-9.67,22.19-32.69,24.47-53.63A85.74,85.74,0,0,0,1311.16,118.38Z"/><path class="a34297a1-fa26-487e-9224-e4b414941c93" d="M1246.92,195c3.58-2.27,7.59-5.31,14.13-5.3,7,0,11.38,2.72,14.7,4.69-3.23,4.63-7,12.41-14.07,12.4S1249.92,199,1246.92,195Z"/><path class="b43e1b81-4be6-4177-a799-dc869303a08e" d="M1236.7,148.63c-2.31,0-4.94,3.73-4.62,10.23.31,6.21,2.57,9.8,5.21,9.81,2.37,0,4.14-4,4.15-9.78C1241.45,153,1239,148.64,1236.7,148.63Z"/><path class="b43e1b81-4be6-4177-a799-dc869303a08e" d="M1285,148.71c-2.3,0-4.93,3.73-4.61,10.23.3,6.21,2.57,9.8,5.2,9.81,2.37,0,4.15-4,4.16-9.78C1289.72,153.05,1287.26,148.72,1285,148.71Z"/><path class="b4459c37-c376-4a27-a44a-84b2d748503f" d="M1392.6,299.4l9.74-54.82a3.34,3.34,0,0,0-.7-2.69h0a17.62,17.62,0,0,1-3.36-6.5l-1.84-6.65a29.56,29.56,0,0,1-.1-15.34l1.31-5a73.27,73.27,0,0,1,2.41-7.53l.37-1a22.62,22.62,0,0,0,1.45-8.58l-.27-9.79a1.11,1.11,0,0,1,.47-.94l1-.7a3.62,3.62,0,0,1,5,.75l.84,1.1a14,14,0,0,1,2.95,6.61l.58,4.81s7.2-19.2,11.4-24.76c6.9-9.14,11.06-5.49,11.06-5.49a6.28,6.28,0,0,1,6.84-2.71c3.15.84,2.88,6.56,2.88,6.56s6.91-1.34,5.7,10.44h0s5,.38,3.85,10.29a47,47,0,0,1-1.56,7.85L1446.8,215l-5,14.07a26.73,26.73,0,0,1-4.55,8l-10.3,12.56a10.17,10.17,0,0,0-2.25,5.33l-7.13,63.77L1400.12,316Z"/><path class="e0363891-7cb5-4c22-99dd-96d7a0b89452" d="M1364.81,364.7a1,1,0,0,1-1-.77c-2.24-9.4-3.57-17.5-4.75-24.64s-2.29-13.86-4.08-20.73c-.78-3-1.86-6.41-4-9.06s-5-4.3-7.67-5.74c-14.66-7.92-30.87-12.88-46.55-17.69a1,1,0,0,1,.59-1.92c15.77,4.83,32.08,9.83,46.91,17.84,2.84,1.53,6.05,3.4,8.31,6.27a26.6,26.6,0,0,1,4.3,9.79c1.82,7,2.94,13.74,4.12,20.91,1.23,7.46,2.51,15.17,4.72,24.51a1,1,0,0,1-.74,1.21Z"/><path class="e0363891-7cb5-4c22-99dd-96d7a0b89452" d="M1165.4,428.37h0a1,1,0,0,1-1-1,739.3,739.3,0,0,1,9.46-96.24c1.25-7.51,2.72-14.72,7.05-20.41,4.52-5.92,11.45-9.28,18.17-12.21,10.92-4.76,22.74-9.29,35.23-10.2h.22l4.6,1.66a1,1,0,1,1-.68,1.89l-4.2-1.51c-12.12.91-23.68,5.35-34.37,10-6.47,2.82-13.15,6-17.37,11.58-4,5.32-5.46,12.27-6.66,19.51a735.5,735.5,0,0,0-9.44,96A1,1,0,0,1,1165.4,428.37Z"/><path class="e0363891-7cb5-4c22-99dd-96d7a0b89452" d="M1187.73,371.07a1,1,0,0,1-1-.93,90.88,90.88,0,0,1,.71-16.61,1,1,0,0,1,.4-.7c14.61-10.83,33.56-12.78,50.18-13.75,24-1.41,39.66-1,64.54,1.64,35.88,3.83,42.63,11.43,42.9,11.75a1,1,0,0,1-1.54,1.3c-.05-.07-6.86-7.35-41.57-11-24.76-2.64-40.36-3-64.21-1.63-16.19,1-34.63,2.82-48.75,13.09a86.9,86.9,0,0,0-.65,15.8,1,1,0,0,1-.93,1.08Z"/><path class="f9984349-6387-41fc-b654-16e61e4df6c9" d="M1417.14,231.19a.84.84,0,0,1-.84-.84c0-7.91-1.58-19.34-6-25.5a.85.85,0,0,1-.15-.62l.1-.58a45.42,45.42,0,0,0,.84-8.45.84.84,0,1,1,1.67-.11,45.92,45.92,0,0,1-.86,8.82l0,.25c4.54,6.54,6.16,18.15,6.16,26.19A.85.85,0,0,1,1417.14,231.19Z"/><path class="f9984349-6387-41fc-b654-16e61e4df6c9" d="M1442.75,214.42a.82.82,0,0,1-.76-.5c-3.26-7.27-14.46-15-23-18a.82.82,0,0,1-.51-1.06.84.84,0,0,1,1.07-.52c9,3.17,20.46,11.1,24,18.89a.83.83,0,0,1-.77,1.18Z"/><path class="f9984349-6387-41fc-b654-16e61e4df6c9" d="M1423.47,196.8a.86.86,0,0,1-.27-.05.83.83,0,0,1-.52-1.06l10.09-29.4a.84.84,0,0,1,1.07-.52.83.83,0,0,1,.52,1.06l-10.1,29.4A.83.83,0,0,1,1423.47,196.8Z"/><path class="f9984349-6387-41fc-b654-16e61e4df6c9" d="M1431.51,202.41a1,1,0,0,1-.3,0,.85.85,0,0,1-.49-1.08l11.92-31.79a.84.84,0,0,1,1.57.59l-11.92,31.79A.83.83,0,0,1,1431.51,202.41Z"/><path class="f9984349-6387-41fc-b654-16e61e4df6c9" d="M1439.16,209.09a.74.74,0,0,1-.29-.05.83.83,0,0,1-.5-1.07l9.93-27.25a.84.84,0,1,1,1.57.58L1440,208.54A.85.85,0,0,1,1439.16,209.09Z"/><path class="e0363891-7cb5-4c22-99dd-96d7a0b89452" d="M1346.45,367.71a1,1,0,0,1-1-1,117.93,117.93,0,0,0-3.7-27.45c-.12-.48-.25-1-.37-1.46-.82-3.17-1.67-6.45-1.26-9.81.37-3.07,1.75-5.82,3.08-8.49a27,27,0,0,0,2.8-7.16,1,1,0,0,1,2,.36,28.89,28.89,0,0,1-3,7.7c-1.31,2.63-2.55,5.11-2.89,7.83-.36,3,.44,6.08,1.21,9.07.13.49.26,1,.38,1.48a122.12,122.12,0,0,1,3.76,27.93A1,1,0,0,1,1346.45,367.71Z"/><path class="e0363891-7cb5-4c22-99dd-96d7a0b89452" d="M1389.93,412.25c-6.74,0-13.3-4.29-20.36-17.14-8.36-15.2-8.49-21.6-5.56-31.05.41-1.31,5.87-12.41,6.54-13.59,5.19-9.12,7-19.66,8.71-29.86a1,1,0,1,1,2,.33c-1.67,9.89-3.57,21.1-8.94,30.52-.69,1.22-6,12.11-6.37,13.2-2.75,8.87-2.6,14.93,5.4,29.48,11.45,20.84,20.57,17.89,33.18,11a1,1,0,0,1,1,1.77C1400,409.9,1394.92,412.25,1389.93,412.25Z"/><path class="e0363891-7cb5-4c22-99dd-96d7a0b89452" d="M1422.1,336.16H1422a89.81,89.81,0,0,1-18.61-4.67c-3.44-1.27-7-2.83-9.68-5.64a29,29,0,0,1-3.58-5l-4.42-7.25a1,1,0,0,1,1.72-1l4.42,7.25a27.08,27.08,0,0,0,3.31,4.66c2.4,2.51,5.71,3.95,8.93,5.14a87.67,87.67,0,0,0,18.19,4.57,1,1,0,0,1-.14,2Z"/><path class="e0363891-7cb5-4c22-99dd-96d7a0b89452" d="M1190.2,428.53H1190a1,1,0,0,1-.81-1.17c2.64-14.82,2.72-24,.3-36.49a200.25,200.25,0,0,1-3-20.5c-.89-14.46,1.51-26.36,4.26-37.05a51.57,51.57,0,0,0-5.72-17,1,1,0,1,1,1.76-1,53.45,53.45,0,0,1,6,17.85l0,.2,0,.21c-3.15,12.23-5.08,23.15-4.25,36.63a199.69,199.69,0,0,0,2.92,20.23c2.48,12.74,2.4,22.14-.29,37.24A1,1,0,0,1,1190.2,428.53Z"/><path class="e0363891-7cb5-4c22-99dd-96d7a0b89452" d="M1264.24,299.82h-.35c-8.28-.32-42-9.85-56-36.52a1,1,0,1,1,1.78-.94c13.62,25.89,46.3,35.14,54.33,35.45,6.75.23,35.6-7.65,51.53-35.7a1,1,0,1,1,1.75,1C1301.12,291.5,1271.85,299.82,1264.24,299.82Z"/><path class="f929bc99-9c79-45b3-9cf2-299e86cbe9b4" d="M1329.54,190.94l3.37-42.31-16.53-47.75-24.87-18.42-40.91-4L1223,90.7l-17.34,16.76-9.09,30.12s-4.83,22.16-5.09,24.15l.29,17.34,9.26,63.47a8,8,0,0,0-.74.91c-2.76,4-7.55,10.51-2.47,28.55,3.6,12.76,17.87,22.57,27.49,24.8-11.46-13.32-6.59-31.52-6.12-38.91.13-2.19.25-3.94.33-5.35a1.28,1.28,0,0,1,0-.19,173.23,173.23,0,0,0-.9-32.06c-1.8-12.11-6.69-59.35,4-77,0,0,19.19-2.68,19.51-2.68-.09-7.36,2.11-16.1,5.83-21.68a54.84,54.84,0,0,0,4.76,22.39s16.73-.64,17.6-.64a62.61,62.61,0,0,1,3.27-17.1q3,8.41,6.3,16.67s21.1,2.07,20.57,3c6.26,12.41,7.67,41.26,6.35,71.6-.56,13-.91,26.41,1.93,38.62h0c3,14.49,5.57,29.38.44,43.16,24.92-19.78,22.91-33.06,20.3-44.9Z"/><path class="b32ce2ac-2f11-4862-b0bf-6102dc07ede6" d="M470.3,1008.87c-17.63-97.51-64.27-263.41-115.24-377-9.35-20.84-14.74-31.67-44.5-33.07-81.08-3.82-154.53-5.55-286.74-.67C-9,599.29-2.59,621,11.59,651.44,76.14,816.28,102.53,932,112.22,1012.83Z"/><path class="f0ec9fc8-e927-4ec1-9838-40f7c938f4bf" d="M326.6,550.24c11.67,32.24,24.39,72.86-5.68,97.93-9.85,8.21-24,13.55-29.35,23.92-1.84,10.81,1.63,22.42,6.31,32.33,6.23,13.19,16.55-.79,30.38,3.86,47,15.79,74.92,25.08,107,12.75,9.53-3.66,18.91-5.71,26.31-12.74s6.5-8.31,2.84-17.57c-15.5-11.37-30.42-25.2-30.42-25.2-6.41-4.29-13.28-6.52-23.31-17.35-2.52-2.72,4.66-19.44,12-38.42Z"/><path class="b4f640cf-16ad-4cde-9b1e-897146ed49fb" d="M558,894.46c-11.87-45-43.92-165-68.66-193.14-22.18-25.21-53.07-31.74-68.85-47.52-1.08-1.08-2.55-.09-3.82.21,6.24,6.24,14.18,41.11-7.72,44.23-43.31,6.17-72.43-42.79-90.29-51.54-17.91,10.81-63.6,41.24-73.38,56.78s-10.92,49.73-7.94,67.85c6.79,41.28,27,213.77,26.07,223.25L317.78,997l.33,6.51,192.47,5.36v-8.26S563.24,914.35,558,894.46Z"/><path class="b4459c37-c376-4a27-a44a-84b2d748503f" d="M370.71,953.87c24.83-6.77,47.65-8.09,72.92-13a28.25,28.25,0,0,1,8.72-.75,24.84,24.84,0,0,1,7.13,2.28,102.09,102.09,0,0,1,48.77,46.4c-12.8,9.36-28.24,19.22-43.38,14.54-8.64-2.67-15.38-9.73-24-12.47-9.67-3.09-20.06.4-30.22.4-22.89,0-35.07-4.48-35.07-4.48l-93.8,4.53-14.36-40.68S366,953.87,370.71,953.87Z"/><path class="f9984349-6387-41fc-b654-16e61e4df6c9" d="M484.92,973.3a1,1,0,0,1-.68-.27c-7.13-6.55-19.89-15.1-27.51-20.21a1,1,0,1,1,1.12-1.67c7.67,5.14,20.51,13.74,27.75,20.4a1,1,0,0,1-.68,1.75Z"/><path class="f9984349-6387-41fc-b654-16e61e4df6c9" d="M469.32,975.86a1,1,0,0,1-.67-.25c-5.6-4.92-15.27-11.34-22.32-16l-2.54-1.69a1,1,0,1,1,1.12-1.67l2.53,1.69c7.11,4.72,16.83,11.19,22.54,16.2a1,1,0,0,1,.09,1.42A1,1,0,0,1,469.32,975.86Z"/><path class="f9984349-6387-41fc-b654-16e61e4df6c9" d="M452.27,977.43a1,1,0,0,1-.72-.3c-3.89-4-12-9.5-17.41-13.16l-1.66-1.13a1,1,0,0,1,1.14-1.66l1.65,1.13c5.45,3.7,13.69,9.3,17.72,13.41a1,1,0,0,1,0,1.43A1,1,0,0,1,452.27,977.43Z"/><path class="b4f640cf-16ad-4cde-9b1e-897146ed49fb" d="M318.66,646.7c-40.49,22.82-100.21,41.43-113,83.76-25.38,84.06-52.31,205.65-53.49,216.93-2.47,23.69,22.93,30.28,36.33,33.54,30.84,7.52,133.38,23.25,142.8,22.56-11.88-5.08-23.5-11.45-21.13-32.53,1.61-14.3,20.53-22.72,48.71-17.05-6.88-1.06-71.37-25.49-112.4-31.82,16.19-38.42,21.34-70.18,47.74-132.8,2.5-5.93,15.11-1.92,17.51-7.89,3.05-7.57,4.23-15.75,5.15-23.86,1.69-14.91,70.27-12.24,55.94-26.58C330.68,688.82,322.06,666.87,318.66,646.7Z"/><path class="e8d3e849-3d72-4398-92ec-34843b4409aa" d="M255.06,901a1,1,0,0,1-.34-.05,1.2,1.2,0,0,1-.81-1.49l29.6-98.51a1.2,1.2,0,0,1,2.3.7l-29.6,98.5A1.19,1.19,0,0,1,255.06,901Z"/><path class="e8d3e849-3d72-4398-92ec-34843b4409aa" d="M503,1001.82a1.21,1.21,0,0,1-1.2-1.15c-1-23.26-1.3-48.49-1.61-75.19-.52-46.07-1.06-93.7-5.45-137.06a1.22,1.22,0,0,1,1.08-1.32,1.2,1.2,0,0,1,1.32,1.07c4.39,43.47,4.93,91.16,5.46,137.28.3,26.69.59,51.89,1.61,75.11a1.21,1.21,0,0,1-1.15,1.26Z"/><path class="e8d3e849-3d72-4398-92ec-34843b4409aa" d="M338.28,951.32a1.19,1.19,0,0,1-.37-.06l-79.85-25.83a1.2,1.2,0,0,1,.74-2.29L338.65,949a1.2,1.2,0,0,1-.37,2.34Z"/><path class="e8d3e849-3d72-4398-92ec-34843b4409aa" d="M243.24,922.51l-.22,0a155.75,155.75,0,0,0-44.21-1.24,1.2,1.2,0,1,1-.29-2.38,158.3,158.3,0,0,1,44.94,1.26,1.2,1.2,0,0,1,1,1.4A1.19,1.19,0,0,1,243.24,922.51Z"/><path class="e8d3e849-3d72-4398-92ec-34843b4409aa" d="M400.5,714.26c-28.06,0-52.69-22.64-71.68-40.1-7.12-6.55-13.27-12.19-18.61-15.82a1.2,1.2,0,1,1,1.35-2c5.49,3.73,11.7,9.43,18.88,16,23.19,21.31,54.93,50.49,90.4,35.14A20.82,20.82,0,0,0,432.56,694,33.1,33.1,0,0,0,429,667.86a1.2,1.2,0,1,1,2-1.3,35.68,35.68,0,0,1,3.86,28.14,23,23,0,0,1-13.07,15A53,53,0,0,1,400.5,714.26Z"/><path class="b4459c37-c376-4a27-a44a-84b2d748503f" d="M570.56,947.05c-13.21-7.47-27.18-7.16-40.75-1.77-8.64,3.43-10.94,6.91-16.77,12.74-6.18,6.19-8.89,8.85-13.59,12.94,3.28,1.48-.52,2.86,2.87,1.89.83-.24,7.22-1.12,8-1.65.39-.27,29.39,2.3,42.8,1.45a18.42,18.42,0,0,0,3,.27c4.82.15,9.56,1.58,14.35,2.24s8.5.67,12.82-2.2C583.46,967.24,580.19,952.49,570.56,947.05Z"/><path class="aaa9945d-d293-4cff-ad88-b99ddcb1730d" d="M391.55,989.86l.09-18.41a1.12,1.12,0,0,1,1.12-1.12l226-.23,1.86,19.69Z"/><path class="ac13e004-7714-440e-b0b1-5ababf4446a2" d="M516.28,977.67l80.06-214.15a4.52,4.52,0,0,1,4.23-2.93l347.63.78a4.51,4.51,0,0,1,4.22,6.07L875.78,975.72a4.51,4.51,0,0,1-4.17,3l-351,5.08A4.51,4.51,0,0,1,516.28,977.67Z"/><ellipse class="ea84aac9-c1dd-4549-85a5-1728af9d2dd5" cx="750.67" cy="884.54" rx="30.16" ry="24.92" transform="translate(-376.79 1157.93) rotate(-63.31)"/><polyline class="a880539e-0123-45d9-8dcf-cc0ff41ccd9f" points="53.17 977.35 53.4 1020.77 1019.14 1024.09 1062.83 1023.79 1062.29 979.51"/><path class="b4459c37-c376-4a27-a44a-84b2d748503f" d="M337.26,539.67c2.45,26.05,1.55,46.42,15.78,66.14,16.52,22.88,43.08,31.77,60.12,34.46,17.51,2.77,73.2-32.95,73.2-90.39,8.54-26.71,10.69-44.8,5-66-4.56-17-30.88-38.12-48-42.47S408.47,437,390.83,437c-7.69,0-15.59.07-22.74,2.9-8.19,3.24-14.6,9.8-20.07,16.7C328.58,481.15,334.81,513.5,337.26,539.67Z"/><path class="b43e1b81-4be6-4177-a799-dc869303a08e" d="M463.37,554.26c-.54-4.74.66-11.42,2-17a16.29,16.29,0,0,1,2-5.14c1-1.46,2.49-2.51,4-2.25a4.85,4.85,0,0,1,3.26,3.17,16,16,0,0,1,1,5.19,41.13,41.13,0,0,1-2.51,17.64,8.93,8.93,0,0,1-2.72,4.06,3.8,3.8,0,0,1-5-.55C464,558,463.56,555.91,463.37,554.26Z"/><path class="b43e1b81-4be6-4177-a799-dc869303a08e" d="M392.91,555.34c-.66-4.74.81-11.42,2.48-17a14.77,14.77,0,0,1,2.39-5.14A5.65,5.65,0,0,1,402.7,531a5.58,5.58,0,0,1,4,3.17,13.52,13.52,0,0,1,1.18,5.19A34.39,34.39,0,0,1,404.8,557a9.21,9.21,0,0,1-3.34,4.06,5.44,5.44,0,0,1-6.09-.55A7.8,7.8,0,0,1,392.91,555.34Z"/><path class="aa8757fa-00d4-4658-ad71-e2bad21b35c4" d="M359.4,472.74c1.69,5.73,12.81,12.16,21.24,15.53-4.57-7.14-6.23-14.68-3.44-23.13,14.91,18.18,38,27,62.83,30.36-2.07-10.71-4.13-17.69-5-27.72,56.33,16.1,53.14,50.84,52.8,75.74,12-12,17.88-42.25,12.59-62.87,9.18-9.18,15.6-21.26,12.32-38.3-6.32,4.8-11.17,3.2-14.79.52,7.17-12.77,8.08-18.82,3.17-30.63-17,12-38.59-20.45-63-30.72-15.42-6.48-40-9.11-63-6.12-20.6,2.68-46.87,15.57-61,29.72-21.7,21.7-34.06,59.62-27.48,83.42,16.87,61.06,40.07,67.12,52.06,104.9.38-24.19,1.19-29,4.64-41.63C342.07,530.72,359.4,472.74,359.4,472.74Z"/><path class="b4459c37-c376-4a27-a44a-84b2d748503f" d="M345.45,571c-8.63,6.57-27.47-4.78-33-20.74-4.11-11.84-3.85-26,4.07-35.89,2.13-2.67,5.12-5.09,8.65-5.16,13-.28,17.88,29.39,18.7,40.9Z"/><path class="aa8757fa-00d4-4658-ad71-e2bad21b35c4" d="M389.35,520.29c-1.71-.72-3.9-1.81-4.8-3.27a1,1,0,0,1-.12-1,1.39,1.39,0,0,1,.44-.39,28.82,28.82,0,0,1,4.54-2.74c4.81-2.15,10.76-1.7,15.56.42A28.32,28.32,0,0,1,416.34,523C415.81,522.94,401.29,525.35,389.35,520.29Z"/><path class="aa8757fa-00d4-4658-ad71-e2bad21b35c4" d="M478.84,521.44a8.26,8.26,0,0,0,3.48-3.28,1.35,1.35,0,0,0,.09-1,1.57,1.57,0,0,0-.32-.4,20.62,20.62,0,0,0-3.3-2.73c-3.49-2.15-7.81-1.71-11.29.42s-6.19,5.75-8.25,9.75C459.64,524.08,470.17,526.49,478.84,521.44Z"/><path class="a34297a1-fa26-487e-9224-e4b414941c93" d="M425.88,611.17a23.68,23.68,0,0,1-3.35-.23c-8.07-1.11-13.31-4.54-17.53-11.49a1.2,1.2,0,0,1,2.06-1.25c3.85,6.35,8.43,9.35,15.79,10.36,7.85,1.08,15.3-2.26,19.3-5.45,2.5-2,4-4.19,4.19-6a1.2,1.2,0,0,1,1.3-1.09,1.21,1.21,0,0,1,1.1,1.3c-.22,2.51-2,5.23-5.09,7.68A29.9,29.9,0,0,1,425.88,611.17Z"/></g></g></svg>