<svg width="1284" height="1530" viewBox="0 0 1284 1530" fill="none" xmlns="http://www.w3.org/2000/svg">
<g id="thinking-man-office-worker2 1">
<g id="Layer 2" style="mix-blend-mode:darken">
<g id="Layer 5 copy" filter="url(#filter0_b_3_70)">
<path id="Vector" d="M1079.74 1422.95C1078.34 1422.95 1076.99 1422.6 1075.99 1421.98C1075 1421.35 1074.44 1420.51 1074.44 1419.62C1074.44 1406.12 1074.44 1388.62 1074.29 1368.6C1073.87 1266.32 1073.16 1095.06 1081.24 1056.44C1089.29 1018.01 1100.93 984.875 1116.82 955.149C1117.3 954.339 1118.26 953.678 1119.5 953.306C1120.74 952.934 1122.17 952.88 1123.47 953.156C1124.78 953.431 1125.86 954.014 1126.49 954.781C1127.12 955.549 1127.26 956.441 1126.86 957.268C1111.18 986.543 1099.68 1019.3 1091.75 1057.3C1083.77 1095.49 1084.41 1266.48 1084.88 1368.58C1084.97 1388.61 1085.04 1406.11 1085.04 1419.63C1085.04 1420.51 1084.48 1421.36 1083.48 1421.98C1082.49 1422.6 1081.15 1422.95 1079.74 1422.95Z" fill="#6599C2"/>
<path id="Vector_2" d="M220.594 1423.19H220.521C219.116 1423.18 217.778 1422.81 216.799 1422.18C215.819 1421.55 215.278 1420.7 215.294 1419.82C215.294 1416.87 221.857 1123.63 194.841 1037.56C185.805 1008.69 173.579 980.254 158.251 952.449C157.988 952.032 157.862 951.586 157.88 951.138C157.899 950.69 158.061 950.248 158.358 949.841C158.655 949.433 159.08 949.067 159.608 948.765C160.136 948.463 160.756 948.231 161.43 948.083C162.105 947.935 162.82 947.874 163.533 947.904C164.245 947.934 164.941 948.054 165.578 948.257C166.215 948.46 166.78 948.742 167.24 949.085C167.699 949.428 168.043 949.827 168.25 950.256C183.751 978.363 196.11 1007.12 205.236 1036.3C232.458 1123.04 225.954 1416.97 225.895 1419.94C225.864 1420.81 225.292 1421.63 224.301 1422.24C223.311 1422.85 221.98 1423.19 220.594 1423.19Z" fill="#6599C2"/>
<path id="Vector_3" d="M1223.69 894.866C1221.59 853.962 1201.26 818.937 1155.67 805.364C1071.04 780.134 871.996 732.079 823.557 723.924C823.557 723.924 773.533 667.162 763.945 653.773C700.016 647.424 627.395 643.71 528.228 651.93C512.561 671.972 473.065 721.962 461.906 723.169L122.91 797.955C65.6472 815.067 50.3918 825.682 43.8286 865.278C43.8286 865.278 172.949 964.197 200.582 1086.75C229.757 1216.1 211.183 1474 211.183 1474H1107.65C1107.65 1474 1068.38 1309.35 1084.32 1219.06C1099.12 1135.3 1223.69 894.866 1223.69 894.866Z" fill="#DBE7EE"/>
<path id="Vector_4" d="M661.768 1464.03C660.38 1464.03 659.048 1463.68 658.06 1463.07C657.072 1462.46 656.505 1461.63 656.482 1460.76L640.889 819.573C640.842 819.123 640.941 818.671 641.18 818.246C641.42 817.821 641.794 817.431 642.281 817.099C642.769 816.768 643.358 816.502 644.014 816.318C644.67 816.134 645.379 816.035 646.097 816.029C646.815 816.022 647.529 816.106 648.193 816.278C648.858 816.449 649.46 816.704 649.963 817.026C650.466 817.348 650.859 817.731 651.119 818.151C651.379 818.572 651.5 819.021 651.475 819.471L667.068 1460.66C667.088 1461.54 666.55 1462.39 665.573 1463.02C664.596 1463.65 663.259 1464.02 661.856 1464.03H661.768Z" fill="#A3C2D3"/>
<path id="Vector_5" d="M614.783 763.124L677.273 762.709L709.413 780.125L677.273 842.481L758.483 1381.31L663.148 1451.84L565.287 1380.93L617.25 842.481L585.168 779.968" fill="#4B93DB"/>
<path id="Vector_6" d="M459.997 856.413C459.242 856.416 458.496 856.315 457.809 856.118C456.857 855.849 456.052 855.408 455.498 854.852C454.944 854.296 454.665 853.65 454.697 852.994L460.203 733.452C460.256 732.573 460.856 731.742 461.875 731.138C462.893 730.533 464.248 730.203 465.65 730.218C467.053 730.244 468.383 730.619 469.346 731.26C470.309 731.901 470.828 732.756 470.789 733.637L465.65 845.245L614.401 758.36C615.442 757.813 616.778 757.537 618.134 757.59C619.489 757.644 620.76 758.021 621.685 758.645C622.609 759.269 623.117 760.092 623.103 760.944C623.09 761.796 622.555 762.613 621.61 763.225L463.594 855.528C462.616 856.098 461.331 856.414 459.997 856.413Z" fill="#99B1CE"/>
<path id="Vector_7" d="M832 855.86C830.648 855.855 829.35 855.525 828.373 854.939L672.119 762.626C671.095 762.021 670.496 761.186 670.453 760.304C670.41 759.422 670.928 758.565 671.891 757.922C672.855 757.279 674.186 756.903 675.592 756.876C676.998 756.85 678.363 757.174 679.387 757.779L826.391 844.637L822.089 733.6C822.038 733.151 822.132 732.701 822.367 732.276C822.601 731.85 822.97 731.46 823.452 731.127C823.934 730.794 824.518 730.525 825.17 730.338C825.822 730.151 826.527 730.049 827.244 730.037C827.96 730.026 828.673 730.106 829.339 730.273C830.004 730.439 830.61 730.689 831.117 731.007C831.625 731.324 832.025 731.703 832.293 732.12C832.56 732.537 832.691 732.984 832.675 733.434L837.286 852.433C837.305 852.875 837.183 853.316 836.926 853.729C836.669 854.142 836.282 854.518 835.789 854.835C835.296 855.152 834.707 855.404 834.056 855.575C833.405 855.747 832.706 855.834 832 855.833V855.86Z" fill="#99B1CE"/>
<path id="Vector_8" d="M1223.69 894.866C1221.59 853.962 1202.87 820.227 1155.77 806.313C1046.82 774.071 853.818 723.924 853.818 723.924C853.818 723.924 791.637 688.706 776.132 668.793C790.697 687.222 801.724 698.943 814.028 713.023C779.597 991.077 648.538 1175.72 648.538 1175.72C648.538 1175.72 506.835 929.412 480.993 708.195C493.151 695.488 507.584 678.818 517.965 664.932C487.219 690.853 456.576 709.006 430.147 723.159L122.91 797.955C65.6472 815.067 50.3918 825.682 43.8286 865.278C43.8286 865.278 172.949 964.197 200.582 1086.75C229.757 1216.1 211.183 1474 211.183 1474H1107.65C1107.65 1474 1068.38 1309.35 1084.32 1219.06C1099.12 1135.3 1223.69 894.866 1223.69 894.866Z" fill="#C6676D"/>
<path id="Vector_9" d="M670.386 1287.56C681.115 1287.56 689.812 1278.75 689.812 1267.88C689.812 1257.01 681.115 1248.19 670.386 1248.19C659.658 1248.19 650.961 1257.01 650.961 1267.88C650.961 1278.75 659.658 1287.56 670.386 1287.56Z" fill="#503435"/>
<path id="Vector_10" d="M661.768 1463.48C660.705 1463.48 659.675 1463.25 658.865 1462.82C658.056 1462.39 657.522 1461.79 657.363 1461.13C629.774 1349.91 619.892 1261.17 619.804 1260.25C619.76 1260.03 619.76 1259.8 619.804 1259.58L641.535 1182.11C641.631 1181.75 641.839 1181.41 642.147 1181.1C642.454 1180.79 642.855 1180.52 643.327 1180.31C643.799 1180.1 644.332 1179.95 644.896 1179.87C645.46 1179.79 646.044 1179.78 646.615 1179.84C647.186 1179.9 647.732 1180.03 648.222 1180.22C648.713 1180.42 649.138 1180.67 649.473 1180.96C649.809 1181.26 650.048 1181.59 650.177 1181.95C650.306 1182.3 650.323 1182.67 650.227 1183.03L628.687 1260.22C629.377 1266.29 639.45 1352.74 666.128 1460.27C666.218 1460.63 666.195 1461 666.059 1461.35C665.923 1461.7 665.678 1462.03 665.337 1462.33C664.996 1462.62 664.566 1462.87 664.072 1463.06C663.578 1463.25 663.03 1463.37 662.458 1463.43C662.23 1463.46 661.999 1463.47 661.768 1463.48Z" fill="#503435"/>
<path id="Vector_11" d="M519.594 691.01C523.763 703.75 533.122 715.595 546.758 725.39C561.866 736.245 594.242 748.988 625.252 755.494C631.345 756.775 659.228 756.416 664.088 755.494C695.156 749.68 756.971 731.029 774.208 693.028C770.812 687.807 768.541 682.325 767.454 676.727C761.581 647.028 768.717 632.791 777.101 603.323L508.759 602.235C520.284 624.351 525.908 639.048 527.846 662.232C528.627 672.094 525.804 681.937 519.594 691.01Z" fill="#D8B2A4"/>
<path id="Vector_12" d="M903.534 1388.08C968.961 1397.3 981.074 1398.14 1102.02 1368.52C1108.58 1366.91 1123.76 1361.57 1123.78 1361.53C1123.79 1361.5 1132.28 1363.84 1185.53 1360.31C1197.07 1359.54 1219.01 1329.73 1215.87 1314.49C1215.26 1311.54 1213.91 1306.41 1201.8 1298.83C1201.8 1298.83 1203.08 1280.2 1180.05 1275.79C1180.05 1275.79 1181.52 1260.02 1155.2 1255.02C1155.2 1255.02 1146.21 1242.38 1142.42 1238.44C1130 1225.54 1123.17 1219.73 1045.15 1226.85C1034.99 1227.79 1025.39 1230.35 1017.25 1234.28C960.68 1261.44 885.005 1292.21 865.33 1301.62C862.022 1303.21 857.883 1303.97 853.73 1303.74C853.73 1303.74 662.854 1296.76 594.741 1292.89L597.677 1384.38C597.677 1384.38 851.381 1388.08 903.534 1388.08Z" fill="#F3DBCD"/>
<path id="Vector_13" d="M1133.1 1359.5C1132.21 1359.5 1131.34 1359.33 1130.61 1359.01C1129.88 1358.69 1129.31 1358.24 1128.99 1357.72C1128.68 1357.2 1128.62 1356.63 1128.83 1356.09C1129.04 1355.54 1129.5 1355.05 1130.16 1354.68C1139.68 1349.18 1147.72 1342.76 1154.01 1335.66C1154.38 1335.24 1154.93 1334.89 1155.58 1334.65C1156.24 1334.4 1156.99 1334.27 1157.75 1334.26L1181.9 1333.94C1183.07 1333.92 1184.2 1334.19 1185.05 1334.7C1185.89 1335.21 1186.39 1335.9 1186.41 1336.64C1186.44 1337.37 1186 1338.08 1185.19 1338.61C1184.39 1339.14 1183.28 1339.45 1182.11 1339.47L1160.47 1339.77C1153.92 1346.86 1145.68 1353.28 1136.05 1358.82C1135.23 1359.26 1134.18 1359.51 1133.1 1359.5Z" fill="#BB877D"/>
<path id="Vector_14" d="M1185.53 1299.59C1185.2 1299.59 1184.87 1299.57 1184.55 1299.52L1129.21 1291.67C1128.07 1291.51 1127.07 1291.07 1126.45 1290.45C1125.82 1289.83 1125.61 1289.07 1125.87 1288.36C1126.13 1287.64 1126.83 1287.02 1127.82 1286.62C1128.81 1286.23 1130 1286.1 1131.15 1286.26L1186.5 1294.12C1187.58 1294.26 1188.54 1294.64 1189.19 1295.2C1189.84 1295.76 1190.13 1296.45 1190.01 1297.13C1189.89 1297.82 1189.36 1298.45 1188.53 1298.91C1187.7 1299.36 1186.63 1299.61 1185.53 1299.59Z" fill="#BB877D"/>
<path id="Vector_15" d="M1157.85 1278.57C1157.45 1278.57 1157.05 1278.54 1156.67 1278.47L1096.47 1267.98C1095.34 1267.78 1094.38 1267.31 1093.81 1266.67C1093.23 1266.03 1093.08 1265.28 1093.4 1264.57C1093.71 1263.86 1094.46 1263.26 1095.48 1262.9C1096.5 1262.54 1097.7 1262.45 1098.83 1262.64L1159.03 1273.14C1160.07 1273.31 1160.97 1273.71 1161.57 1274.28C1162.16 1274.84 1162.41 1275.51 1162.27 1276.18C1162.12 1276.85 1161.59 1277.46 1160.78 1277.9C1159.97 1278.34 1158.93 1278.58 1157.85 1278.57Z" fill="#BB877D"/>
<path id="Vector_16" d="M1139.33 1257.8C1138.95 1257.81 1138.57 1257.77 1138.21 1257.71L1065.35 1245.9C1064.79 1245.81 1064.26 1245.65 1063.8 1245.43C1063.34 1245.21 1062.95 1244.94 1062.65 1244.63C1062.06 1243.99 1061.89 1243.24 1062.18 1242.53C1062.47 1241.82 1063.2 1241.21 1064.21 1240.83C1065.22 1240.46 1066.42 1240.35 1067.56 1240.54L1140.43 1252.35C1141.49 1252.51 1142.42 1252.9 1143.04 1253.46C1143.66 1254.03 1143.93 1254.71 1143.79 1255.39C1143.65 1256.07 1143.12 1256.69 1142.3 1257.13C1141.47 1257.58 1140.41 1257.82 1139.33 1257.8Z" fill="#BB877D"/>
<path id="Vector_17" d="M430.147 723.16C217.849 769.316 62.182 813.657 51.5663 820.319C41.7582 826.484 30.7755 880.445 30.7755 980.342C30.7755 1157.57 46.0603 1274.04 68.9507 1376.16C69.8108 1380.19 72.9029 1383.91 77.687 1386.66C118.49 1409.7 177.236 1411.43 233.442 1412.61C470.113 1417.59 564.597 1419.5 849.59 1398.14L846.653 1396.72L843.217 1288.23C544.188 1288.23 456.576 1256.31 302.994 1250.38C302.994 1199.46 299.367 1030.69 285.375 964.354L297.121 845.862L430.147 723.16Z" fill="#C6676D"/>
<path id="Vector_18" d="M481.918 1419.57C423.452 1419.57 365.014 1418.28 293.304 1416.68C274.333 1416.27 254.409 1415.83 233.31 1415.39C232.731 1415.37 232.162 1415.29 231.635 1415.14C231.108 1414.99 230.633 1414.78 230.238 1414.51C229.843 1414.25 229.534 1413.93 229.331 1413.59C229.127 1413.25 229.032 1412.89 229.052 1412.53C229.071 1412.17 229.204 1411.81 229.443 1411.48C229.682 1411.15 230.023 1410.85 230.446 1410.6C230.868 1410.35 231.365 1410.16 231.907 1410.03C232.448 1409.9 233.025 1409.84 233.603 1409.86C254.717 1410.3 274.715 1410.78 293.627 1411.17C485.193 1415.4 581.82 1417.54 838.152 1398.42L838.798 1291.01C653.252 1290.81 550.766 1278.44 460.261 1267.51C406.214 1260.98 359.523 1255.34 302.745 1253.15C301.623 1253.11 300.569 1252.8 299.799 1252.29C299.03 1251.77 298.602 1251.09 298.604 1250.39C298.604 1043.29 288.326 1020.81 288.179 1020.61C288.001 1020.26 287.933 1019.9 287.979 1019.54C288.025 1019.17 288.185 1018.82 288.449 1018.5C288.713 1018.17 289.075 1017.88 289.517 1017.65C289.958 1017.41 290.469 1017.23 291.02 1017.12C291.572 1017.01 292.153 1016.97 292.731 1017C293.308 1017.03 293.871 1017.13 294.387 1017.29C294.904 1017.46 295.363 1017.68 295.738 1017.96C296.114 1018.24 296.399 1018.56 296.578 1018.9C297.033 1019.76 307.34 1042.21 307.428 1247.79C363.003 1250.13 411.103 1255.93 461.935 1262.07C552.763 1273.04 655.748 1285.48 843.232 1285.48C844.4 1285.48 845.521 1285.77 846.347 1286.29C847.173 1286.8 847.637 1287.51 847.637 1288.24L846.961 1400.89C846.969 1401.57 846.576 1402.23 845.858 1402.74C845.14 1403.25 844.148 1403.58 843.071 1403.66C679.754 1415.86 580.792 1419.57 481.918 1419.57Z" fill="#503435"/>
<path id="Vector_19" d="M1073.47 1193.28C1056.76 1118.71 939.36 1011.34 879.44 815.887C837.315 801.328 682.97 842.665 664.088 867.259C706.447 1005.48 733.816 1082.22 781.109 1193.96C820.503 1287.02 894.167 1336.59 922.064 1355.6C922.064 1355.6 954.895 1360.14 1009.18 1355.66C1009.18 1355.66 1028.94 1349.88 1054.8 1335.62C1098.39 1311.57 1161.69 1303.25 1182.54 1225.34C1248.36 979.208 1265.35 876.713 1251.55 837.652C1247.71 827.129 1092.34 780.134 853.818 723.924" fill="#C6676D"/>
<path id="Vector_20" d="M984.304 1359.51L947.098 1359.41C938.281 1359.39 929.583 1358.13 921.641 1355.73C913.699 1353.32 906.715 1349.84 901.2 1345.52C866.475 1318.47 804.117 1262.8 776.719 1193.93C729.646 1075.66 701.25 1004.26 659.756 868.89C659.634 868.477 659.659 868.052 659.83 867.646C663.882 858.127 698.108 844.692 728.839 835.293C777.497 820.402 846.594 806.295 881.26 815.555C881.926 815.733 882.511 816.011 882.964 816.365C883.417 816.719 883.725 817.137 883.859 817.583C921.433 940.138 969.592 1023.91 1004.76 1085.06C1029.34 1127.8 1048.81 1161.54 1055.62 1192.2C1055.7 1192.56 1055.67 1192.93 1055.52 1193.28C1055.37 1193.64 1055.12 1193.97 1054.76 1194.26C1054.41 1194.56 1053.97 1194.8 1053.47 1194.99C1052.97 1195.18 1052.41 1195.3 1051.83 1195.35C1051.25 1195.4 1050.66 1195.38 1050.1 1195.29C1049.53 1195.19 1049 1195.03 1048.53 1194.81C1048.07 1194.59 1047.68 1194.31 1047.38 1194C1047.08 1193.68 1046.89 1193.33 1046.81 1192.97C1040.07 1162.9 1020.79 1129.39 996.388 1086.94C961.282 1025.86 913.21 942.313 875.593 820.126C844.862 813.233 782.166 825.12 732.656 840.278C693.013 852.442 671.958 863.315 668.639 868.54C709.971 1003.32 738.338 1074.61 785.279 1192.58C812.266 1260.43 873.802 1315.35 908.086 1342.05C912.774 1345.72 918.714 1348.69 925.471 1350.73C932.227 1352.78 939.627 1353.85 947.127 1353.86L984.319 1353.97C997.68 1353.97 1005.92 1352.26 1019.56 1346.6C1026.49 1343.73 1034.89 1339.87 1043.78 1335.79C1049.66 1333.12 1055.72 1330.32 1061.98 1327.5C1066.53 1325.46 1071.36 1323.4 1076.35 1321.28C1107.27 1308.1 1142.33 1293.16 1159.43 1265.82C1159.64 1265.48 1159.95 1265.17 1160.35 1264.91C1160.76 1264.65 1161.24 1264.44 1161.77 1264.29C1162.3 1264.15 1162.87 1264.07 1163.45 1264.06C1164.03 1264.05 1164.6 1264.12 1165.14 1264.25C1165.68 1264.38 1166.18 1264.58 1166.6 1264.83C1167.01 1265.09 1167.35 1265.39 1167.58 1265.72C1167.81 1266.05 1167.94 1266.41 1167.95 1266.78C1167.96 1267.14 1167.86 1267.5 1167.65 1267.84C1149.56 1296.78 1111.71 1312.91 1081.3 1325.89C1076.37 1327.99 1071.59 1330.03 1067.09 1332.04C1060.86 1334.8 1054.78 1337.57 1049 1340.25C1040.01 1344.38 1031.52 1348.27 1024.42 1351.21C1011.14 1356.72 1001.31 1359.51 984.304 1359.51Z" fill="#503435"/>
<path id="Vector_21" d="M287.372 1004.79C286.491 1004.79 285.63 1004.63 284.9 1004.32C284.17 1004.01 283.604 1003.57 283.275 1003.06C212.989 894.009 117.037 837.938 71.4174 822.006C70.9113 821.828 70.4657 821.59 70.1062 821.305C69.7467 821.02 69.4802 820.693 69.3221 820.343C69.1639 819.993 69.1172 819.627 69.1844 819.265C69.2517 818.904 69.4317 818.554 69.7142 818.237C69.9967 817.919 70.3761 817.64 70.8308 817.414C71.2854 817.188 71.8065 817.021 72.3641 816.922C72.9217 816.823 73.5051 816.793 74.0808 816.835C74.6565 816.878 75.2133 816.991 75.7195 817.168C117.242 831.672 161.482 859.758 203.65 898.395C238.479 930.598 267.904 964.977 291.453 1000.98C291.725 1001.4 291.829 1001.86 291.754 1002.31C291.68 1002.76 291.43 1003.19 291.027 1003.57C290.624 1003.94 290.08 1004.25 289.442 1004.46C288.805 1004.68 288.094 1004.79 287.372 1004.79Z" fill="#503435"/>
<path id="Vector_22" d="M1002.06 998.679C1001.59 998.677 1001.13 998.63 1000.69 998.54C999.581 998.313 998.661 997.818 998.132 997.165C997.604 996.512 997.51 995.754 997.871 995.057C1025 942.709 1108.34 869.664 1227.19 832.98C1227.71 832.82 1228.27 832.725 1228.85 832.702C1229.43 832.679 1230.01 832.727 1230.55 832.844C1231.1 832.961 1231.61 833.145 1232.04 833.385C1232.48 833.625 1232.83 833.916 1233.09 834.243C1233.34 834.569 1233.5 834.923 1233.53 835.286C1233.57 835.648 1233.49 836.012 1233.31 836.356C1233.12 836.7 1232.83 837.018 1232.44 837.291C1232.06 837.563 1231.6 837.787 1231.08 837.947C1114.54 873.884 1032.86 945.491 1006.25 996.771C1005.97 997.327 1005.4 997.811 1004.65 998.154C1003.9 998.496 1002.99 998.68 1002.06 998.679Z" fill="#503435"/>
<path id="Vector_23" d="M638.907 1203.63C638.293 1203.63 637.688 1203.54 637.129 1203.39C636.57 1203.23 636.071 1203 635.662 1202.71C634.091 1201.64 477.793 1093.76 362.812 911.038L323.594 848.7C323.214 848.099 323.183 847.433 323.505 846.818C323.826 846.204 324.482 845.68 325.356 845.337L404.276 814.468L342.902 775.766C342.474 775.496 342.139 775.173 341.92 774.818C341.7 774.463 341.599 774.083 341.625 773.702C341.638 773.323 341.775 772.951 342.028 772.607C342.28 772.263 342.643 771.955 343.093 771.702L417.975 731.683C418.867 731.206 420.024 730.972 421.191 731.03C421.769 731.06 422.332 731.16 422.849 731.326C423.365 731.491 423.824 731.719 424.2 731.996C424.576 732.273 424.862 732.594 425.04 732.941C425.219 733.287 425.287 733.652 425.24 734.015C425.194 734.378 425.034 734.731 424.77 735.055C424.506 735.379 424.143 735.667 423.701 735.903L352.416 773.978L414.319 812.993C414.788 813.288 415.145 813.645 415.363 814.039C415.582 814.432 415.655 814.851 415.579 815.265C415.503 815.679 415.279 816.077 414.923 816.428C414.568 816.78 414.09 817.077 413.526 817.297L333.035 848.783L370.902 908.974C485.237 1090.68 640.492 1197.86 642.034 1198.93C642.599 1199.33 642.97 1199.82 643.102 1200.34C643.234 1200.87 643.122 1201.41 642.78 1201.89C642.437 1202.38 641.879 1202.79 641.171 1203.09C640.463 1203.38 639.636 1203.53 638.789 1203.54L638.907 1203.63Z" fill="#503435"/>
<path id="Vector_24" d="M659.727 1203.63C658.906 1203.63 658.101 1203.49 657.403 1203.22C656.705 1202.95 656.141 1202.56 655.774 1202.1C655.408 1201.64 655.254 1201.12 655.33 1200.61C655.405 1200.1 655.708 1199.61 656.203 1199.2C656.585 1198.88 695.288 1166.25 745.65 1115C746.266 1114.38 747.252 1113.93 748.392 1113.76C749.532 1113.59 750.732 1113.72 751.729 1114.1C752.726 1114.49 753.438 1115.11 753.707 1115.82C753.977 1116.54 753.783 1117.29 753.168 1117.92C702.571 1169.38 663.603 1202.19 663.28 1202.52C662.868 1202.86 662.332 1203.15 661.715 1203.34C661.098 1203.53 660.417 1203.63 659.727 1203.63Z" fill="#503435"/>
<path id="Vector_25" d="M913.107 918.972C912.384 918.973 911.671 918.863 911.032 918.651C910.392 918.439 909.846 918.131 909.441 917.755C909.036 917.379 908.785 916.946 908.71 916.494C908.635 916.043 908.738 915.586 909.011 915.166C910.332 913.13 911.624 911.075 912.916 909.029L950.813 848.802L873.567 817.324C873.024 817.104 872.565 816.812 872.222 816.468C871.88 816.124 871.662 815.737 871.584 815.334C871.507 814.931 871.573 814.522 871.776 814.137C871.979 813.752 872.314 813.399 872.759 813.104L931.49 774.089L860.117 735.959C859.225 735.483 858.671 734.805 858.576 734.073C858.481 733.342 858.853 732.616 859.611 732.056C860.368 731.497 861.449 731.149 862.615 731.089C863.781 731.03 864.937 731.263 865.829 731.738L940.711 771.758C941.167 772.002 941.539 772.302 941.804 772.639C942.069 772.977 942.222 773.345 942.253 773.721C942.287 774.096 942.2 774.472 941.995 774.825C941.791 775.178 941.474 775.502 941.063 775.775L882.729 814.477L958.727 845.392C959.581 845.739 960.217 846.261 960.527 846.869C960.838 847.477 960.803 848.134 960.43 848.728L921.197 911.065C919.905 913.12 918.599 915.184 917.277 917.239C916.944 917.759 916.367 918.203 915.622 918.513C914.877 918.822 914 918.982 913.107 918.972Z" fill="#503435"/>
<path id="Vector_26" d="M993.334 1077.39H993.084C992.504 1077.37 991.936 1077.28 991.412 1077.12C990.888 1076.97 990.419 1076.75 990.031 1076.47C989.644 1076.2 989.345 1075.89 989.154 1075.54C988.962 1075.2 988.881 1074.83 988.914 1074.47L994.098 1015.04C994.129 1014.68 994.275 1014.33 994.526 1014C994.776 1013.67 995.127 1013.38 995.559 1013.13C995.99 1012.89 996.494 1012.7 997.04 1012.58C997.587 1012.46 998.166 1012.41 998.745 1012.43C999.323 1012.45 999.89 1012.54 1000.41 1012.7C1000.93 1012.86 1001.4 1013.08 1001.79 1013.35C1002.17 1013.62 1002.47 1013.94 1002.66 1014.28C1002.86 1014.62 1002.94 1014.99 1002.91 1015.35L997.724 1074.77C997.664 1075.48 997.176 1076.14 996.359 1076.63C995.543 1077.12 994.46 1077.39 993.334 1077.39Z" fill="#503435"/>
<path id="Vector_27" d="M542.529 118.648C542.03 119.045 541.501 119.395 541.061 119.8C464.079 89.8617 179.644 220.111 328.674 439.135L953.617 424.023C1108.49 145.795 644.589 36.0387 542.529 118.648Z" fill="#343538"/>
<path id="Vector_28" d="M900.377 289.185C837.961 192.016 719.588 185.059 639.817 185.003C559.766 184.92 409.811 174.6 378.757 304.942C369.948 342.003 341.023 378.659 350.17 432.814C361.916 502.053 414.569 579.152 476.823 610.492C535.041 639.803 599.469 652.511 642.739 652.557C691.368 652.603 757.485 630.828 799.521 610.648C866.064 578.692 916.367 502.606 928.407 433.394C937.701 379.295 922.695 323.942 900.377 289.185Z" fill="#F3DBCD"/>
<path id="Vector_29" d="M922.563 429.736C929.361 422.282 937.965 414.071 951.503 412.772C959.593 411.998 967.918 414.044 974.114 417.379C980.31 420.715 984.627 425.258 987.96 429.948C999.56 446.341 999.956 465.535 990.471 482.472C980.986 499.409 962.016 513.986 938.347 524.039C930.066 527.559 921.051 530.582 911.228 531.743C899.679 533.075 887.751 531.767 877.604 528.057L922.563 429.736Z" fill="#F3DBCD"/>
<path id="Vector_30" d="M353.914 434.178C347.16 426.705 338.585 418.513 325.077 417.149C316.987 416.366 308.647 418.393 302.422 421.756C296.196 425.12 291.879 429.616 288.532 434.298C276.785 450.663 276.345 469.857 285.742 486.821C295.139 503.785 314.036 518.391 337.66 528.49C345.912 532.028 354.927 535.069 364.735 536.249C376.275 537.608 388.209 536.336 398.388 532.664L353.914 434.178Z" fill="#F3DBCD"/>
<path id="Vector_31" d="M899.79 458.809C952.971 421.194 981.632 309.18 877.149 211.855C819.681 158.308 685.539 136.295 609.468 143.261C539.842 149.61 421.337 157.221 351.609 251.423C321.494 292.087 284.479 386.667 379.168 460.504C370.05 422.659 393.278 351.771 443.068 320.644C441.834 337.857 449.734 354.987 449.734 354.987C493.929 336.557 523.75 315.769 554.862 283.112C573.95 308.591 607.5 333.369 692.337 352.803C689.412 336.147 688.92 319.359 690.869 302.647C720.807 329.499 746.957 340.151 812.853 354.821C808.772 338.179 815.496 316.948 815.496 316.948C887.647 357.76 904.562 435.366 899.79 458.809Z" fill="#343538"/>
<path id="Vector_32" d="M685.627 564.197C685.307 564.196 684.988 564.178 684.673 564.142C669.623 562.625 654.398 561.901 639.156 561.976C619.775 561.976 603.653 562.658 591.232 563.985C590.533 564.079 589.812 564.083 589.11 563.998C588.409 563.912 587.743 563.739 587.151 563.487C586.559 563.236 586.055 562.912 585.667 562.536C585.28 562.159 585.018 561.737 584.897 561.295C584.777 560.853 584.799 560.4 584.964 559.964C585.129 559.528 585.433 559.117 585.857 558.756C586.282 558.396 586.818 558.093 587.434 557.865C588.049 557.638 588.732 557.491 589.44 557.433C602.449 556.042 619.173 555.332 639.156 555.332C655.053 555.245 670.933 556.004 686.626 557.599C687.925 557.75 689.088 558.2 689.887 558.86C690.685 559.521 691.062 560.345 690.942 561.171C690.823 561.997 690.216 562.765 689.241 563.325C688.266 563.885 686.993 564.196 685.671 564.197H685.627Z" fill="#BB877D"/>
<path id="Vector_33" d="M376.775 513.424C375.883 513.426 375.01 513.258 374.274 512.942C373.537 512.626 372.97 512.177 372.649 511.655C370.623 508.347 367.011 505.426 363.179 502.33C359.454 499.531 356.229 496.484 353.562 493.244C349.304 487.623 348.716 481.726 348.129 476.022C347.967 474.382 347.806 472.732 347.556 471.083C345.471 457.5 332.712 444.36 321.127 438.361C320.226 437.893 319.658 437.22 319.547 436.489C319.437 435.758 319.794 435.029 320.54 434.464C321.286 433.898 322.359 433.541 323.524 433.472C324.689 433.403 325.849 433.627 326.751 434.095C339.275 440.545 353.855 454.763 356.278 470.548C356.542 472.262 356.718 473.967 356.88 475.662C357.438 481.09 357.952 486.213 361.476 490.867C363.881 493.74 366.77 496.443 370.094 498.929C374.147 502.21 378.331 505.592 380.828 509.655C381.038 509.995 381.14 510.357 381.127 510.721C381.114 511.085 380.987 511.444 380.752 511.777C380.517 512.11 380.18 512.411 379.76 512.662C379.339 512.913 378.844 513.109 378.302 513.24C377.815 513.358 377.297 513.42 376.775 513.424Z" fill="#BB877D"/>
<path id="Vector_34" d="M901.082 508.946C900.363 508.947 899.654 508.838 899.018 508.628C898.382 508.418 897.837 508.113 897.432 507.74C897.026 507.368 896.772 506.939 896.692 506.49C896.612 506.042 896.707 505.588 896.971 505.168C899.496 501.104 903.696 497.722 907.763 494.46C911.1 491.981 914.004 489.284 916.426 486.416C919.979 481.762 920.522 476.639 921.095 471.221C921.271 469.525 921.447 467.821 921.726 466.107C924.222 450.331 938.876 436.177 951.444 429.709C952.349 429.243 953.513 429.022 954.677 429.095C955.842 429.168 956.913 429.528 957.655 430.096C958.397 430.664 958.749 431.394 958.633 432.125C958.517 432.856 957.944 433.528 957.038 433.994C945.483 439.946 932.665 453.077 930.507 466.66C930.242 468.309 930.066 469.958 929.904 471.589C929.288 477.293 928.671 483.191 924.384 488.812C921.702 492.044 918.462 495.082 914.723 497.87C910.876 500.957 907.249 503.869 905.208 507.177C904.887 507.699 904.32 508.148 903.584 508.464C902.847 508.78 901.975 508.948 901.082 508.946Z" fill="#BB877D"/>
<path id="Vector_35" d="M508.215 397.439C496.073 397.439 482.212 409.777 483.915 431.238C485.53 451.778 497.438 463.637 511.313 463.646C523.808 463.646 533.161 450.386 533.205 431.33C533.249 411.768 520.285 397.457 508.215 397.439Z" fill="#403B3B"/>
<path id="Vector_36" d="M762.433 397.724C750.29 397.724 736.43 410.054 738.133 431.524C739.748 452.063 751.656 463.923 765.531 463.932C778.026 463.932 787.364 450.672 787.423 431.616C787.467 412.035 774.502 397.724 762.433 397.724Z" fill="#403B3B"/>
<path id="Vector_37" d="M711.586 385.921C716.358 376.171 725.05 365.031 740.732 358.276C747.956 355.162 756.795 352.425 766.294 352.49C774.37 352.554 807.685 357.401 815.203 371.582C815.775 372.679 815.805 374.181 813.588 374.651C812.553 374.793 811.481 374.793 810.445 374.651C792.251 373.129 773.812 373.169 755.635 374.771C738.485 376.3 722.687 381.921 711.586 385.921Z" fill="#343538"/>
<path id="Vector_38" d="M563.98 357.115C559.223 347.357 550.516 336.226 534.835 329.471C527.626 326.357 518.787 323.62 509.272 323.684C501.212 323.749 467.896 328.596 460.379 342.777C459.791 343.874 459.777 345.376 461.994 345.836C463.028 345.984 464.102 345.984 465.136 345.836C483.33 344.315 501.77 344.355 519.947 345.956C537.067 347.495 552.895 353.116 563.98 357.115Z" fill="#343538"/>
<path id="Vector_39" d="M789.669 645.406C785.411 629.907 788.289 590.625 763.901 598.54C737.722 607.036 737.971 635.537 735.343 634.57C697.755 620.683 669.271 611.173 647.158 605.258C643.031 604.156 638.487 603.818 634.064 604.285C629.641 604.752 625.523 606.004 622.198 607.893C610.535 614.709 599.845 622.152 590.248 630.137C590.248 630.137 575.374 630.828 571.498 632.137C563.76 633.98 555.597 646.217 555.597 646.217C555.597 646.217 540.268 649.903 536.347 653.589C534.902 654.947 533.83 656.449 533.176 658.03C530.416 664.683 532.016 669.383 530.856 673.833C529.256 679.961 524.366 685.25 519.8 689.683C505.837 703.247 521.268 708.895 531.238 734.521C532.371 737.366 534.557 740.004 537.618 742.22C540.68 744.435 544.53 746.167 548.857 747.274C566.623 751.882 594.374 758.424 603.183 760.074C615.414 762.35 620.289 755.466 628.629 761.585C654.896 780.714 656.834 818.329 715.962 828.852C716.901 829.018 723.406 844.968 727.708 852.515C735.96 866.835 868.663 846.793 864.258 830.658C862.966 825.848 855.551 800.839 855.081 796.748C854.127 788.39 835.098 756.885 830.12 747.145C829.43 745.385 803.912 697.331 789.669 645.406Z" fill="#F3DBCD"/>
<path id="Vector_40" d="M716.3 661.67C715.799 661.667 715.302 661.611 714.831 661.504L614.005 638.817C612.903 638.573 612 638.064 611.497 637.402C610.993 636.74 610.928 635.98 611.318 635.288C611.707 634.597 612.518 634.03 613.573 633.714C614.628 633.398 615.839 633.357 616.941 633.602L717.768 656.288C718.76 656.5 719.599 656.927 720.135 657.492C720.671 658.057 720.868 658.724 720.691 659.372C720.514 660.02 719.975 660.608 719.17 661.029C718.365 661.45 717.347 661.677 716.3 661.67Z" fill="#BD8980"/>
<path id="Vector_41" d="M692.822 681.408C692.321 681.405 691.824 681.349 691.353 681.242L583.582 656.777C582.482 656.526 581.585 656.012 581.09 655.347C580.594 654.681 580.54 653.92 580.939 653.229C581.338 652.539 582.158 651.976 583.218 651.665C584.278 651.354 585.492 651.32 586.592 651.571L694.319 676.008C695.301 676.225 696.128 676.652 696.655 677.215C697.182 677.778 697.375 678.44 697.199 679.083C697.023 679.727 696.49 680.31 695.694 680.731C694.899 681.151 693.891 681.381 692.851 681.38L692.822 681.408Z" fill="#BB877D"/>
<path id="Vector_42" d="M669.667 702.73C669.214 702.728 668.764 702.685 668.331 702.601L552.337 679.408C551.785 679.297 551.274 679.12 550.832 678.885C550.39 678.65 550.026 678.363 549.761 678.04C549.496 677.717 549.335 677.364 549.287 677.002C549.239 676.64 549.305 676.276 549.481 675.93C549.658 675.583 549.941 675.263 550.315 674.985C550.689 674.708 551.146 674.479 551.661 674.313C552.176 674.147 552.738 674.045 553.315 674.015C553.892 673.985 554.472 674.027 555.024 674.137L671.018 697.321C672.034 697.515 672.904 697.933 673.469 698.498C674.033 699.062 674.253 699.736 674.089 700.394C673.924 701.053 673.386 701.652 672.574 702.081C671.761 702.511 670.729 702.741 669.667 702.73Z" fill="#BB877D"/>
<path id="Vector_43" d="M622.198 751.624C621.176 751.623 620.187 751.399 619.399 750.99C618.612 750.582 618.075 750.014 617.881 749.385C615.429 741.598 608.66 735.093 605.929 734.282C589.631 729.444 558.768 723.372 558.46 723.316C557.906 723.208 557.392 723.032 556.947 722.799C556.502 722.566 556.134 722.281 555.865 721.958C555.596 721.636 555.43 721.284 555.378 720.922C555.325 720.559 555.387 720.194 555.56 719.847C555.732 719.5 556.012 719.177 556.383 718.898C556.755 718.618 557.21 718.387 557.723 718.218C558.237 718.049 558.798 717.946 559.375 717.913C559.953 717.88 560.535 717.919 561.088 718.027C562.38 718.276 592.861 724.265 609.703 729.269C616.192 731.195 623.901 739.921 626.544 748.316C626.657 748.673 626.656 749.04 626.543 749.397C626.429 749.754 626.204 750.094 625.881 750.396C625.557 750.698 625.142 750.957 624.659 751.158C624.175 751.36 623.633 751.499 623.064 751.568C622.779 751.605 622.489 751.623 622.198 751.624Z" fill="#BB877D"/>
<path id="Vector_44" d="M776.748 655.616C776.105 655.616 775.469 655.528 774.886 655.358C774.302 655.188 773.785 654.939 773.371 654.63C770.861 652.787 763.358 647.59 758.689 645.94L687.316 620.858C686.293 620.499 685.541 619.899 685.223 619.192C684.904 618.484 685.047 617.726 685.62 617.085C686.192 616.443 687.147 615.971 688.275 615.771C689.402 615.571 690.61 615.661 691.632 616.02L763.005 641.112C769.936 643.545 779.156 650.327 780.14 651.055C780.516 651.332 780.8 651.654 780.977 652.001C781.154 652.348 781.22 652.714 781.171 653.077C781.122 653.44 780.959 653.794 780.691 654.117C780.423 654.44 780.057 654.727 779.612 654.962C778.812 655.386 777.796 655.618 776.748 655.616Z" fill="#BB877D"/>
<path id="Vector_45" d="M735.549 637.306C734.71 637.313 733.884 637.179 733.155 636.919C694.98 622.83 667.156 613.569 645.47 607.773C642.121 606.882 638.436 606.609 634.849 606.988C631.262 607.367 627.922 608.381 625.222 609.911C613.75 616.616 603.236 623.939 593.801 631.796C593.446 632.084 593.005 632.325 592.501 632.506C591.998 632.687 591.443 632.804 590.867 632.85C590.292 632.896 589.708 632.871 589.148 632.775C588.588 632.68 588.064 632.516 587.605 632.293C587.146 632.071 586.762 631.794 586.473 631.478C586.185 631.162 585.999 630.813 585.925 630.452C585.852 630.091 585.892 629.724 586.044 629.373C586.196 629.022 586.457 628.693 586.812 628.405C596.573 620.291 607.446 612.727 619.305 605.801C623.264 603.574 628.153 602.101 633.397 601.555C638.642 601.008 644.027 601.41 648.92 602.714C670.034 608.354 696.786 617.191 732.818 630.414L732.994 629.769C735.461 621.079 740.57 603 761.904 596.08C767.572 594.237 772.373 593.776 776.587 594.651C778.489 595.095 780.225 595.78 781.688 596.663C783.15 597.546 784.308 598.608 785.088 599.784C785.339 600.112 785.484 600.468 785.516 600.831C785.548 601.194 785.465 601.558 785.273 601.901C785.08 602.244 784.782 602.56 784.396 602.831C784.009 603.101 783.541 603.322 783.018 603.479C782.496 603.636 781.929 603.728 781.35 603.747C780.771 603.767 780.192 603.715 779.645 603.595C779.099 603.474 778.595 603.287 778.164 603.044C777.732 602.801 777.381 602.508 777.13 602.18C775.662 600.337 774.194 600.005 773.783 599.913C772.021 599.535 769.378 599.913 765.971 601C748.514 606.667 743.947 622.922 741.701 630.736C740.526 634.92 740.13 636.329 737.457 637.094C736.854 637.253 736.202 637.325 735.549 637.306Z" fill="#BB877D"/>
</g>
</g>
</g>
<defs>
<filter id="filter0_b_3_70" x="26.7755" y="87.8" width="1233.22" height="1390.2" filterUnits="userSpaceOnUse" color-interpolation-filters="sRGB">
<feFlood flood-opacity="0" result="BackgroundImageFix"/>
<feGaussianBlur in="BackgroundImageFix" stdDeviation="2"/>
<feComposite in2="SourceAlpha" operator="in" result="effect1_backgroundBlur_3_70"/>
<feBlend mode="normal" in="SourceGraphic" in2="effect1_backgroundBlur_3_70" result="shape"/>
</filter>
</defs>
</svg>
