<svg xmlns="http://www.w3.org/2000/svg" viewBox="0 0 1500 832.44"><defs><style>.b475103c-4572-403c-a58e-de15c3a3da93{fill:#dfe5eb;}.a3e6f036-cf04-4155-92a1-59b836cc6e13{fill:#ccd2d9;}.bbb4d2f8-8be1-4bb5-a8fd-ccdbe8574cbf{fill:#afb6bd;}.b41343a9-ebf3-4b92-a75e-94291a54ba98{fill:#f2f5fa;}.a6808574-a981-4c0a-8234-ea920d7ef4fd{fill:#504f56;}.b147d717-4c22-463b-b6ab-d182c7418d7d{fill:#f2f5f7;}.ac949130-e698-45b1-bb53-cc2bc0e9c0ef{fill:#c16161;}.f535ee87-973c-4751-b4c9-77ddc7a1bbbc{fill:#c3c7c9;}.f4d0c995-3b25-47c4-923e-a112f37e5a8b{fill:#4f668c;}.b0952c2f-7634-476f-8e8e-4bb383a104e7{fill:#f9dbd4;}.e064383c-c81a-4f42-a4b7-41a21d167e24{fill:#ce9b97;}.ea32ab8a-7b35-4b1f-92c6-38b9df07a753{fill:#364249;}.ab542848-8006-46a7-9734-9c364811fa1f{fill:#e6ebef;}.ba3b89fb-764d-44e8-a2c1-4f5f93e7d7ad{fill:#e6beb5;}.b6b010c3-d519-4cb5-befe-ee82e5650bad{fill:#555;}.b0416f0c-0565-4b8c-90a0-11f8faa548d1{fill:#554d59;}.b80887a2-ab04-43d6-aec6-a3e672d88f9f{fill:#edc4bb;}</style></defs><g id="f93b9d73-cb3c-4cf9-a98d-8f7d6b606180" data-name="Layer 2"><g id="e9eaaa4f-164b-4398-b67a-72015ba5fdb2" data-name="Layer 9"><rect class="b475103c-4572-403c-a58e-de15c3a3da93" x="769.73" y="152.78" width="642.86" height="467.05" rx="10"/><path class="a3e6f036-cf04-4155-92a1-59b836cc6e13" d="M1250.57,489.64H976.8a6.93,6.93,0,0,0-6.93,6.93V619.82h287.64V496.57A6.94,6.94,0,0,0,1250.57,489.64Z"/><path class="bbb4d2f8-8be1-4bb5-a8fd-ccdbe8574cbf" d="M1135.81,521h-53.72a5.2,5.2,0,0,0-5.2,5.2v93.63h67.58V529.66A8.67,8.67,0,0,0,1135.81,521Z"/><path class="b475103c-4572-403c-a58e-de15c3a3da93" d="M1244.51,749.74h-70V526.19a5.2,5.2,0,0,0-5.2-5.2H1101.7a5.2,5.2,0,0,0-5.2,5.2V749.74h-183a5.2,5.2,0,0,0-5.2,5.2v7.36a5.2,5.2,0,0,0,5.2,5.2h331a5.2,5.2,0,0,0,5.2-5.2v-7.36A5.2,5.2,0,0,0,1244.51,749.74Z"/><path class="a3e6f036-cf04-4155-92a1-59b836cc6e13" d="M1103.29,747.55a1.3,1.3,0,0,1-1.3-1.3V524.51a1.3,1.3,0,0,1,2.6,0V746.25A1.3,1.3,0,0,1,1103.29,747.55Z"/><path class="a3e6f036-cf04-4155-92a1-59b836cc6e13" d="M779.26,606.39a1.3,1.3,0,0,1-1.3-1.3V167.5a1.3,1.3,0,0,1,2.6,0V605.09A1.3,1.3,0,0,1,779.26,606.39Z"/><ellipse class="b41343a9-ebf3-4b92-a75e-94291a54ba98" cx="1127.55" cy="251.14" rx="32.49" ry="34.87"/><path class="a6808574-a981-4c0a-8234-ea920d7ef4fd" d="M607.75,809.32C585,683.32,533,468.93,467.13,322.08c-12.08-26.93-27.35-40.93-65.81-42.74-104.78-4.93-199.69-7.17-370.54-.86-42.46,1.57-34.13,29.68-15.8,69,83.41,213,117.52,362.58,130,467Z"/><path class="b147d717-4c22-463b-b6ab-d182c7418d7d" d="M431.05,305.69l-4.26,19.16,1.3,32.76,43.83,59.92a225.12,225.12,0,0,1,27.57,57.7c9.91,24.42,17.9,60.42,23.7,79.31,5.89,19.18,26,94.17,26,94.17s8.69-64.9,11.91-104.18c7.42-90.46-4.8-157.55-15.57-186.92-1.38-3.77-15.64-26.77-15.64-26.77-.24-.81-93.85-28.9-93.85-28.9Z"/><polygon class="ac949130-e698-45b1-bb53-cc2bc0e9c0ef" points="494.29 397.43 517.13 427.07 514.15 522.51 542.89 638.3 555.14 645.06 562.33 524.63 531.05 424 534.86 392.35 523.1 379.54 505.27 381.62 494.29 397.43"/><path class="f535ee87-973c-4751-b4c9-77ddc7a1bbbc" d="M479.12,417.53a1.31,1.31,0,0,1-1-2.11c4.17-5.25,8-10.47,12-16,4.25-5.83,8.65-11.86,13.75-18.28a1.3,1.3,0,0,1,2,1.62c-5.06,6.37-9.44,12.38-13.67,18.19-4,5.55-7.86,10.78-12.07,16.08A1.28,1.28,0,0,1,479.12,417.53Z"/><path class="f535ee87-973c-4751-b4c9-77ddc7a1bbbc" d="M549.23,411.05a1.29,1.29,0,0,1-1-.47c-7.89-9.53-17.19-20.62-26.41-30.65a1.3,1.3,0,1,1,1.91-1.76c9.27,10.07,18.6,21.2,26.5,30.76a1.29,1.29,0,0,1-1,2.12Z"/><path class="f4d0c995-3b25-47c4-923e-a112f37e5a8b" d="M759.62,729.14c-4-7.19-13.14-12-25.23-15.13-40.84-195.16-64.11-292.87-74.27-306-5.13-6.61-86.63-38.19-116.37-58l-14-24.79-97.52-25.36a3.56,3.56,0,0,0-4.18,1.71l-23.71,43.73c-23.15,14-97.6,49.25-110.23,69.34S280,479,283.8,502.36c8.77,53.35,47,276.26,45.8,288.5l81,3.13.43,8.41,248.71,6.92V798.66s58.58-17.34,76.91-37.87q5.85.18,11.71.06c5.75-.13,12.54-1.12,15.11-6.26C766.2,749.22,762.51,734.4,759.62,729.14ZM554.85,535.21c-3.22,39.28-6.06,101.37-6.06,101.37s-13.55-72.85-19.44-92c-5.8-18.89-14.65-50.89-26.36-74.5-13.56-27.36-62.24-105.1-62.24-105.1a52.87,52.87,0,0,1-9.43-24.68l-.79-7.06c-.76-6.68-1.28-13.36-.4-18.29.42-2.38,3.49-11.14,3.49-11.14l3.76-.35s92.74,29.21,93,30c0,0,7.59,17,9,20.73C550.11,383.54,562.27,444.75,554.85,535.21Z"/><path class="b0952c2f-7634-476f-8e8e-4bb383a104e7" d="M479.28,738.5c32.08-8.74,61.58-10.45,94.22-16.77,3.72-.72,7.52-1.42,11.28-1a32.4,32.4,0,0,1,9.2,2.94,132,132,0,0,1,63,60c-16.54,12.09-36.49,24.83-56.06,18.79-11.16-3.45-19.87-12.57-31-16.12-12.5-4-25.93.51-39.05.51-29.59,0-45.33-5.77-45.33-5.77l-121.21,5.85-18.55-52.58S473.16,738.5,479.28,738.5Z"/><path class="e064383c-c81a-4f42-a4b7-41a21d167e24" d="M626.86,763.61a1.3,1.3,0,0,1-.88-.34c-9.2-8.47-25.69-19.52-35.55-26.12a1.3,1.3,0,0,1,1.45-2.16c9.92,6.64,26.51,17.76,35.86,26.36a1.3,1.3,0,0,1-.88,2.26Z"/><path class="e064383c-c81a-4f42-a4b7-41a21d167e24" d="M606.7,766.92a1.28,1.28,0,0,1-.86-.32c-7.25-6.36-19.74-14.67-28.85-20.73l-3.28-2.18a1.3,1.3,0,1,1,1.45-2.16l3.27,2.17c9.18,6.11,21.75,14.47,29.13,20.95a1.3,1.3,0,0,1,.12,1.83A1.32,1.32,0,0,1,606.7,766.92Z"/><path class="e064383c-c81a-4f42-a4b7-41a21d167e24" d="M584.67,769a1.29,1.29,0,0,1-.93-.39c-5-5.13-15.54-12.27-22.49-17l-2.15-1.46a1.3,1.3,0,1,1,1.47-2.15l2.14,1.46c7,4.79,17.68,12,22.89,17.34a1.29,1.29,0,0,1,0,1.83A1.28,1.28,0,0,1,584.67,769Z"/><path class="f4d0c995-3b25-47c4-923e-a112f37e5a8b" d="M411.79,341.31c-46.09,20.06-114.6,38.32-138.89,55.28-10.34,1.44-15.61,6.54-19,18.54-30.5,109.3-55.76,300.17-57.28,314.74-3.2,30.62,29.63,39.13,47,43.36,39.84,9.71,172.35,30,184.52,29.14-15.34-6.56-30.37-14.8-27.3-42,2.08-18.48,26.53-29.36,62.95-22-8.9-1.37-92.23-32.94-145.26-41.11,20.93-49.65,4.68-90.69,38.8-171.62,3.23-7.67,42.42-2.48,45.52-10.19,4-9.79,5.47-20.36,6.66-30.84,2.19-19.26,90.81-15.81,72.29-34.34C427.32,395.74,416.18,367.37,411.79,341.31Z"/><ellipse class="ea32ab8a-7b35-4b1f-92c6-38b9df07a753" cx="560.3" cy="690.29" rx="5.2" ry="13.24"/><path class="ea32ab8a-7b35-4b1f-92c6-38b9df07a753" d="M444.69,733.71a1.28,1.28,0,0,1-.38-.05c-.85-.26-85.16-26.21-111.3-31.24-3.14-.6-6.16-1.19-9.08-1.77-26.53-5.2-44.05-8.64-67-4.81a1.3,1.3,0,1,1-.43-2.56c23.41-3.91,42.08-.25,67.92,4.82,2.92.57,5.93,1.17,9.07,1.77,26.28,5.06,110.73,31,111.58,31.3a1.3,1.3,0,0,1-.39,2.54Z"/><path class="ea32ab8a-7b35-4b1f-92c6-38b9df07a753" d="M323.84,699.64h-.16a1.3,1.3,0,0,1-1.13-1.45l19.62-157.31a1.3,1.3,0,0,1,2.58.32L325.13,698.5A1.3,1.3,0,0,1,323.84,699.64Z"/><path class="ea32ab8a-7b35-4b1f-92c6-38b9df07a753" d="M650,800a1.31,1.31,0,0,1-1.3-1.25c-1.31-30.05-1.69-62.64-2.08-97.15-.67-59.54-1.38-121.1-7-177.14a1.3,1.3,0,0,1,1.16-1.42,1.29,1.29,0,0,1,1.42,1.16c5.68,56.15,6.38,117.78,7.06,177.37.39,34.48.76,67.06,2.08,97.07a1.31,1.31,0,0,1-1.24,1.36Z"/><path class="ea32ab8a-7b35-4b1f-92c6-38b9df07a753" d="M344.57,502.48a1.29,1.29,0,0,1-1.28-1.1c-3.86-25.11-10.22-44.19-20-60-13-21-28-33.49-46-38a1.3,1.3,0,1,1,.64-2.51c18.67,4.71,34.24,17.52,47.6,39.17,10,16.16,16.44,35.55,20.35,61a1.3,1.3,0,0,1-1.08,1.48Z"/><path class="ea32ab8a-7b35-4b1f-92c6-38b9df07a753" d="M640,508a1.31,1.31,0,0,1-1.29-1.15c-3.29-26.79,4.14-61.85,17.27-81.55a1.3,1.3,0,1,1,2.16,1.44C645.26,446,638,480.28,641.24,506.53a1.3,1.3,0,0,1-1.13,1.45Z"/><path class="ea32ab8a-7b35-4b1f-92c6-38b9df07a753" d="M542.49,725.36h-.06A1.29,1.29,0,0,1,541.2,724c0-.86-.05-5.89-.15-12.26-.1-6-.23-13.5-.3-20.48a99.07,99.07,0,0,1,1.62-18.84C544.51,660.81,548,642,548,642l2.56.47s-3.44,18.84-5.58,30.45a96.37,96.37,0,0,0-1.58,18.35c.07,7,.2,14.44.29,20.46.12,6.67.2,11.48.15,12.42A1.31,1.31,0,0,1,542.49,725.36Z"/><path class="ea32ab8a-7b35-4b1f-92c6-38b9df07a753" d="M444.69,442.61h-.19l-32.32-4.94a1.29,1.29,0,0,1-1.07-1l-5.18-24.28a228.05,228.05,0,0,1-4.73-58.62,1.3,1.3,0,0,1,2.59.13,225.56,225.56,0,0,0,4.68,57.95l5,23.4,31.43,4.8a1.3,1.3,0,0,1-.2,2.58Z"/><path class="ea32ab8a-7b35-4b1f-92c6-38b9df07a753" d="M570.17,435.87a1.3,1.3,0,0,1-.62-2.45l9.58-5.12-34.72-70.11a1.3,1.3,0,0,1,2.33-1.16L582,428.27a1.31,1.31,0,0,1-.55,1.73l-10.69,5.71A1.26,1.26,0,0,1,570.17,435.87Z"/><path class="ea32ab8a-7b35-4b1f-92c6-38b9df07a753" d="M549.09,682.49l-.3,0a1.31,1.31,0,0,1-1-1.56l4.63-19.6,13.78-48.83A516.62,516.62,0,0,0,581,541.2l8.9-66.27-35.43-66.27a1.3,1.3,0,1,1,2.29-1.22l35.63,66.63a1.28,1.28,0,0,1,.14.79l-9,66.69a519.18,519.18,0,0,1-14.84,71.63L555,662l-4.61,19.53A1.29,1.29,0,0,1,549.09,682.49Z"/><path class="ea32ab8a-7b35-4b1f-92c6-38b9df07a753" d="M546.78,656.91a1.3,1.3,0,0,1-1.08-.57l-59.9-88.66A505,505,0,0,1,458.85,523l-30.61-57.27a1.31,1.31,0,0,1,.07-1.34l35.2-52.05a1.3,1.3,0,1,1,2.15,1.46L430.9,465.18l30.24,56.58A503.77,503.77,0,0,0,488,566.23l59.91,88.65a1.3,1.3,0,0,1-.35,1.8A1.26,1.26,0,0,1,546.78,656.91Z"/><path class="b0952c2f-7634-476f-8e8e-4bb383a104e7" d="M758.92,729.69c-17.07-9.65-35.12-9.25-52.66-2.28-11.17,4.43-14.14,8.93-21.66,16.46-8,8-11.5,11.44-17.57,16.71,4.23,1.93-.67,3.71,3.7,2.45,1.08-.31,9.33-1.45,10.31-2.13.5-.34,38,3,55.31,1.88a24.74,24.74,0,0,0,3.89.34c6.23.2,12.36,2,18.55,2.89s11,.87,16.56-2.83C775.59,755.78,771.36,736.72,758.92,729.69Z"/><path class="e064383c-c81a-4f42-a4b7-41a21d167e24" d="M731.59,761.88a1.27,1.27,0,0,1-.92-.38c-5.17-5.17-9.47-19.26-11-26.94a1.31,1.31,0,0,1,1-1.52,1.29,1.29,0,0,1,1.52,1c1.55,7.91,5.75,21.09,10.26,25.6a1.3,1.3,0,0,1-.92,2.21Z"/><path class="e064383c-c81a-4f42-a4b7-41a21d167e24" d="M750.45,765a1.29,1.29,0,0,1-1.11-.62c-6.28-10.28-10.53-18.82-12.31-29.63a1.3,1.3,0,1,1,2.56-.42c1.72,10.39,5.85,18.68,12,28.69a1.29,1.29,0,0,1-.43,1.79A1.26,1.26,0,0,1,750.45,765Z"/><path class="e064383c-c81a-4f42-a4b7-41a21d167e24" d="M768.85,764.48a1.3,1.3,0,0,1-.68-.19,16.1,16.1,0,0,1-2.85-2.21c-2.45-2.36-8.67-12.75-11.8-24.18a1.3,1.3,0,1,1,2.51-.69c3,10.82,8.88,20.87,11.09,23a14.08,14.08,0,0,0,2.41,1.86,1.3,1.3,0,0,1-.68,2.41Z"/><path class="e064383c-c81a-4f42-a4b7-41a21d167e24" d="M719,766.59a1.24,1.24,0,0,1-.53-.12c-5.94-2.68-14.41-18.7-15.27-32.05a1.29,1.29,0,0,1,1.21-1.38,1.31,1.31,0,0,1,1.38,1.21,52.43,52.43,0,0,0,5.55,19.25c3.1,6.17,6.35,9.77,8.19,10.6a1.3,1.3,0,0,1-.53,2.49Z"/><path class="b475103c-4572-403c-a58e-de15c3a3da93" d="M508.6,780.24a2.6,2.6,0,0,1-2.61-2.61l.11-21.17a1.45,1.45,0,0,1,1.44-1.45l289.55-.3a2.61,2.61,0,0,1,2.6,2.49l.87,19.81a2.59,2.59,0,0,1-2.59,2.71Z"/><polygon class="ab542848-8006-46a7-9734-9c364811fa1f" points="88.42 764.72 88.74 828.03 1500 832.43 1499.21 767.87 88.42 764.72"/><path class="ba3b89fb-764d-44e8-a2c1-4f5f93e7d7ad" d="M416,219.23c10.36,28.65,24.23,61.19,19.27,89.26l13.21,26.66a27.28,27.28,0,0,0,8.66,10.14l45.58,32.35a5.24,5.24,0,0,0,3.84.91l12.82-2a3.12,3.12,0,0,0,2.55-2.3l5.52-21.23a39.63,39.63,0,0,0,1.35-10.67,23.47,23.47,0,0,1,1.58-8.95c2.26-5.79,8.92-5.62,8.92-5.62Z"/><path class="b0952c2f-7634-476f-8e8e-4bb383a104e7" d="M429.76,193.75c3.16,33.67-.12,62.38,20.91,85.74C470.73,301.76,512,328,536.75,328c22.67,0,90.88-50.75,86.76-127.36,2.34-36.29,4-70.42-9.38-101.32-13.57-31.48-42.82-50.43-64.9-56s-23.93-3.13-46.72-3.11c-9.94,0-20.15,6.08-29.39,9.73-10.58,4.19-22.39,4.94-29.45,13.87C418.55,95.5,426.59,159.94,429.76,193.75Z"/><path class="b6b010c3-d519-4cb5-befe-ee82e5650bad" d="M593,204c-1.34-6-.7-14.77.31-22.06a21.05,21.05,0,0,1,1.82-6.86c1-2,2.86-3.57,4.85-3.44s3.56,1.68,4.62,3.64a20.68,20.68,0,0,1,1.93,6.53c1.27,7.71,1.24,15.78-.84,23-.61,2.14-1.46,4.28-2.95,5.58a4.94,4.94,0,0,1-6.47,0C594.25,208.75,593.44,206.06,593,204Z"/><path class="b6b010c3-d519-4cb5-befe-ee82e5650bad" d="M501.93,205.55c-1.49-6-.5-14.79.9-22.12a18.92,18.92,0,0,1,2.38-6.92,6.49,6.49,0,0,1,11.57,0A17.36,17.36,0,0,1,519,183c1.37,7.7,1.15,15.79-1.56,23.09a11.82,11.82,0,0,1-3.74,5.66,7,7,0,0,1-7.9.13C503.39,210.31,502.45,207.64,501.93,205.55Z"/><path class="b0416f0c-0565-4b8c-90a0-11f8faa548d1" d="M480.55,100.83a37.86,37.86,0,0,1,25.84,7.08s-.59-8.27-5.2-13.85c37.15-7.81,65,17,65,17s-2.45-15.89-9.09-21.64c18.44.93,39.8,17.66,43.64,24.56-1.28-9.63-4.33-12-4.33-12,10.91,2.32,21.81,13.66,26.81,29,2.55-7.89,1.55-22,1.55-27.26.61-.84,4.29-7.78,22.14-9.53C643.21,89.47,635.49,83,628.48,83c4.69-6.73,15.07-11.62,23-13C643,63.08,633.17,60.28,626.16,63c3.39-3.4,12-7.42,21.94-17.33-11.32-2.48-20.9-4.07-34.33-1.49,8.51-7.45,10.39-12.53,11.86-21C583.6,33.27,575.5-5.42,475.15.65c-37,2.24-77.57,40.56-89.24,54.58-13,15.59-23.84,65.9-20.79,90.83,5,40.91,52.53,76.25,68,125.07.5-31.27,4.65-55.62,4.65-75.63,0-10.55,1-30.85,2.55-39.11,2.86-5,10.74-15,17.53-19.23C460.8,115,480.55,100.83,480.55,100.83Z"/><path class="b0952c2f-7634-476f-8e8e-4bb383a104e7" d="M440.34,239c-11.15,8.48-35.5-6.18-42.66-26.8-5.32-15.3-5-29.38,5.25-42.23,2.75-3.45,6.62-6.56,11.18-6.66,16.76-.37,23.1,33.82,24.16,48.69Z"/><path class="b0416f0c-0565-4b8c-90a0-11f8faa548d1" d="M496.12,159c-2.23-.54-5.08-1.35-6.28-2.48-.26-.25-.43-.56-.18-.82a2.1,2.1,0,0,1,.56-.31,45.18,45.18,0,0,1,5.81-2.19c6.16-1.74,13.87-1.48,20.11.11a38.2,38.2,0,0,1,14.91,7.44C530.37,160.69,511.66,162.76,496.12,159Z"/><path class="b0416f0c-0565-4b8c-90a0-11f8faa548d1" d="M611.76,158.67c1.59-.59,3.62-1.45,4.43-2.6a.69.69,0,0,0,.09-.82,1.51,1.51,0,0,0-.42-.3,29.19,29.19,0,0,0-4.32-2.08,21.91,21.91,0,0,0-14.58.47,25.15,25.15,0,0,0-10.44,7.71C587,161,600.69,162.72,611.76,158.67Z"/><path class="e064383c-c81a-4f42-a4b7-41a21d167e24" d="M554.36,282.23c-11.9,0-23.57-5.91-24.83-11.86a1.3,1.3,0,0,1,2.54-.54c1.11,5.26,15.5,11.8,28.26,9.22,8.35-1.69,13.27-5.09,17-11.75a1.29,1.29,0,0,1,1.76-.51,1.31,1.31,0,0,1,.51,1.77c-4.13,7.41-9.56,11.18-18.75,13A32.73,32.73,0,0,1,554.36,282.23Z"/><path class="e064383c-c81a-4f42-a4b7-41a21d167e24" d="M427,227.56a1.27,1.27,0,0,1-.78-.27A16,16,0,0,1,420,214.47a30.22,30.22,0,0,1,1.22-6.9,29.54,29.54,0,0,0,1.14-6,25.67,25.67,0,0,0-1.13-7.51c-.91-3.38-2-6.76-3.22-10a14.37,14.37,0,0,0-2.82-5.11,4.49,4.49,0,0,0-4.48-1.35,1.3,1.3,0,0,1-.92-2.43c2.66-1,5.55.25,7.24,1.95a16.28,16.28,0,0,1,3.41,6c1.27,3.36,2.37,6.82,3.3,10.28a27.75,27.75,0,0,1,1.21,8.29,31.08,31.08,0,0,1-1.21,6.58,27.63,27.63,0,0,0-1.14,6.31,13.36,13.36,0,0,0,5.15,10.7,1.3,1.3,0,0,1,.25,1.82A1.33,1.33,0,0,1,427,227.56Z"/><path class="b80887a2-ab04-43d6-aec6-a3e672d88f9f" d="M578.55,183.59c-2.13,5.58-4,9.48-4.65,14.54-.9,6.89,8.11,24.79,8.91,25.56C579.19,210.85,577.87,202.38,578.55,183.59Z"/></g></g></svg>